<svg width="537" height="371" viewBox="0 0 537 371" fill="none" xmlns="http://www.w3.org/2000/svg">
<path fill-rule="evenodd" clip-rule="evenodd" d="M409 0H136.523V106.006H134C134 123.996 137.553 141.811 144.458 158.431C151.362 175.052 161.481 190.154 174.238 202.875C186.995 215.596 202.14 225.687 218.808 232.572C235.476 239.457 253.34 243 271.382 243C289.423 243 307.287 239.457 323.955 232.572C340.623 225.687 355.768 215.596 368.525 202.875C381.282 190.154 391.401 175.052 398.306 158.431C405.187 141.866 408.74 124.114 408.763 106.185H409V0Z" fill="white"/>
<path fill-rule="evenodd" clip-rule="evenodd" d="M0 0H137V102H137.252C137.252 119.268 140.647 136.366 147.243 152.32C153.839 168.273 163.506 182.769 175.694 194.979C187.881 207.189 202.35 216.875 218.274 223.483C234.197 230.091 251.264 233.492 268.5 233.492C285.736 233.492 302.803 230.091 318.726 223.483C334.65 216.875 349.119 207.189 361.306 194.979C373.494 182.769 383.161 168.273 389.757 152.32C396.353 136.366 399.748 119.268 399.748 102L400 102V0H537L537 102C537 137.326 530.055 172.305 516.562 204.942C503.068 237.578 483.291 267.233 458.358 292.212C433.426 317.191 403.826 337.005 371.251 350.524C338.675 364.042 303.76 371 268.5 371C233.24 371 198.325 364.042 165.749 350.524C133.174 337.005 103.574 317.191 78.6418 292.212C53.7093 267.233 33.9317 237.578 20.4383 204.942C7.19963 172.921 0.26449 138.645 0.00739704 104H0V102.113L-2.35167e-05 102L0 0Z" fill="#891AEE"/>
<path d="M240.725 308.939C237.493 311.054 238.855 316.07 242.714 316.259L256.5 316.933C258.225 317.018 259.7 318.203 260.153 319.871L263.772 333.19C264.785 336.918 269.976 337.172 271.348 333.561L276.249 320.658C276.863 319.043 278.446 318.006 280.172 318.091L293.958 318.765C297.816 318.954 299.662 314.095 296.651 311.674L285.895 303.026C284.548 301.943 284.052 300.117 284.665 298.502L289.567 285.599C290.938 281.988 286.888 278.731 283.655 280.846L272.106 288.404C270.66 289.35 268.77 289.257 267.424 288.175L256.667 279.526C253.657 277.106 249.307 279.952 250.32 283.68L253.939 296.999C254.392 298.666 253.72 300.436 252.274 301.382L240.725 308.939Z" fill="white"/>
<path d="M406.007 248.497C405.32 252.298 409.898 254.759 412.689 252.088L422.66 242.544C423.908 241.349 425.783 241.094 427.305 241.912L439.463 248.446C442.865 250.274 446.62 246.68 444.942 243.201L438.947 230.769C438.196 229.213 438.533 227.35 439.781 226.156L449.752 216.612C452.543 213.941 450.285 209.259 446.457 209.78L432.781 211.64C431.069 211.873 429.402 210.977 428.651 209.421L422.656 196.989C420.978 193.509 415.827 194.21 415.14 198.011L412.683 211.593C412.375 213.293 411.008 214.602 409.296 214.835L395.62 216.695C391.792 217.216 390.867 222.33 394.27 224.159L406.428 230.693C407.95 231.511 408.772 233.215 408.464 234.915L406.007 248.497Z" fill="white"/>
<path d="M93.828 243.723C92.2327 247.241 96.0716 250.746 99.4301 248.837L111.43 242.017C112.932 241.164 114.813 241.374 116.089 242.539L126.283 251.844C129.136 254.449 133.655 251.88 132.877 248.096L130.1 234.577C129.752 232.884 130.533 231.161 132.035 230.307L144.035 223.487C147.394 221.579 146.348 216.487 142.509 216.057L128.792 214.521C127.075 214.329 125.678 213.053 125.33 211.361L122.552 197.841C121.775 194.057 116.609 193.479 115.014 196.997L109.315 209.567C108.601 211.141 106.956 212.076 105.239 211.884L91.5224 210.347C87.6834 209.917 85.537 214.651 88.3902 217.256L98.5842 226.561C99.8601 227.725 100.241 229.579 99.5276 231.153L93.828 243.723Z" fill="white"/>
<path d="M39.5702 82.2078C35.9015 83.4176 35.9241 88.6152 39.6032 89.7929L52.7485 94.0008C54.3938 94.5275 55.5129 96.0537 55.5204 97.7813L55.5806 111.584C55.5974 115.446 60.5476 117.031 62.8046 113.896L70.8686 102.694C71.878 101.292 73.6754 100.7 75.3207 101.226L88.466 105.434C92.1451 106.612 95.1818 102.394 92.8976 99.2784L84.7362 88.1476C83.7147 86.7544 83.7064 84.8618 84.7158 83.4598L92.7798 72.2582C95.0368 69.1231 91.9634 64.9315 88.2947 66.1412L75.1867 70.4635C73.546 71.0045 71.7435 70.4275 70.722 69.0343L62.5606 57.9035C60.2764 54.7882 55.3402 56.4158 55.357 60.2788L55.4171 74.081C55.4247 75.8086 54.3189 77.3445 52.6782 77.8855L39.5702 82.2078Z" fill="white"/>
<path d="M443.542 99.578C441.295 102.72 444.382 106.902 448.047 105.68L461.141 101.315C462.78 100.769 464.584 101.34 465.61 102.73L473.808 113.834C476.102 116.942 481.033 115.298 481.004 111.435L480.898 97.6333C480.885 95.9057 481.986 94.3662 483.625 93.8198L496.719 89.4547C500.383 88.233 500.344 83.0355 496.661 81.8698L483.502 77.7049C481.855 77.1835 480.731 75.661 480.718 73.9334L480.612 60.1315C480.583 56.2686 475.628 54.7002 473.381 57.8426L465.353 69.0704C464.349 70.4758 462.553 71.0743 460.906 70.553L447.747 66.3881C444.064 65.2224 441.041 69.4505 443.336 72.5583L451.533 83.6625C452.56 85.0524 452.574 86.9449 451.569 88.3502L443.542 99.578Z" fill="white"/>
<path d="M198 68.0315L212.404 54.8844L259.559 58.8361L271.227 39.1987L339.106 20.9492L332.801 31.3205L312.857 65.4879L302.271 84.772L316.451 170.195L277.958 145.642L282.785 133.303L235.927 98.9335L219.338 68.0315H198Z" fill="#891AEE"/>
</svg>
