<svg width="246" height="60" viewBox="0 0 246 60" fill="none" xmlns="http://www.w3.org/2000/svg">
<path d="M236.355 38.0715C235.974 38.0715 235.635 38.006 235.337 37.875C235.041 37.7423 234.807 37.5602 234.635 37.3289C234.465 37.0958 234.378 36.827 234.373 36.5225H235.485C235.492 36.6501 235.534 36.7624 235.61 36.8593C235.688 36.9546 235.792 37.0286 235.921 37.0814C236.051 37.1341 236.196 37.1605 236.358 37.1605C236.526 37.1605 236.675 37.1307 236.804 37.0711C236.934 37.0116 237.035 36.9291 237.108 36.8236C237.181 36.7182 237.218 36.5965 237.218 36.4587C237.218 36.3192 237.179 36.1959 237.1 36.0887C237.024 35.9798 236.913 35.8948 236.769 35.8335C236.626 35.7723 236.456 35.7417 236.258 35.7417H235.771V34.9302H236.258C236.425 34.9302 236.572 34.9013 236.7 34.8434C236.829 34.7856 236.929 34.7056 237.001 34.6036C237.072 34.4998 237.108 34.379 237.108 34.2412C237.108 34.1102 237.077 33.9954 237.014 33.8967C236.952 33.7964 236.866 33.7181 236.753 33.662C236.643 33.6058 236.514 33.5777 236.366 33.5777C236.216 33.5777 236.079 33.605 235.955 33.6594C235.83 33.7121 235.731 33.7878 235.656 33.8865C235.581 33.9852 235.541 34.1009 235.536 34.2336H234.477C234.482 33.9324 234.568 33.6671 234.735 33.4374C234.902 33.2077 235.126 33.0283 235.409 32.899C235.693 32.768 236.013 32.7025 236.371 32.7025C236.731 32.7025 237.047 32.768 237.317 32.899C237.588 33.03 237.798 33.2069 237.948 33.4297C238.099 33.6509 238.174 33.8993 238.172 34.1749C238.174 34.4675 238.083 34.7116 237.899 34.9072C237.717 35.1029 237.48 35.2271 237.187 35.2798V35.3206C237.572 35.37 237.864 35.5035 238.065 35.7213C238.267 35.9373 238.368 36.2078 238.366 36.5327C238.368 36.8304 238.282 37.095 238.108 37.3263C237.937 37.5577 237.699 37.7397 237.396 37.8724C237.094 38.0051 236.747 38.0715 236.355 38.0715ZM239.659 38.0663C239.49 38.0663 239.346 38.0068 239.225 37.8877C239.106 37.7669 239.046 37.6223 239.046 37.4539C239.046 37.2872 239.106 37.1443 239.225 37.0252C239.346 36.9061 239.49 36.8466 239.659 36.8466C239.822 36.8466 239.965 36.9061 240.087 37.0252C240.21 37.1443 240.271 37.2872 240.271 37.4539C240.271 37.5662 240.242 37.6691 240.184 37.7627C240.128 37.8545 240.054 37.9285 239.962 37.9847C239.87 38.0391 239.769 38.0663 239.659 38.0663ZM242.946 32.7025C243.215 32.7025 243.473 32.7476 243.722 32.8377C243.972 32.9279 244.195 33.0716 244.39 33.269C244.588 33.4663 244.743 33.7283 244.857 34.0549C244.973 34.3799 245.032 34.7788 245.033 35.2517C245.033 35.6957 244.983 36.0921 244.883 36.4409C244.784 36.7879 244.642 37.0831 244.457 37.3263C244.271 37.5696 244.047 37.755 243.785 37.8826C243.523 38.0085 243.231 38.0715 242.908 38.0715C242.559 38.0715 242.251 38.0043 241.984 37.8699C241.717 37.7338 241.502 37.5492 241.338 37.3161C241.177 37.0814 241.079 36.8177 241.045 36.5251H242.134C242.177 36.7156 242.266 36.8636 242.402 36.9691C242.539 37.0728 242.707 37.1247 242.908 37.1247C243.248 37.1247 243.506 36.9767 243.683 36.6807C243.86 36.383 243.95 35.9756 243.951 35.4584H243.916C243.837 35.6115 243.732 35.7434 243.599 35.8539C243.467 35.9628 243.314 36.047 243.142 36.1066C242.972 36.1661 242.791 36.1959 242.599 36.1959C242.291 36.1959 242.016 36.1236 241.775 35.979C241.533 35.8344 241.343 35.6353 241.203 35.3819C241.064 35.1284 240.994 34.8392 240.994 34.5143C240.992 34.1638 241.073 33.8516 241.236 33.5777C241.4 33.3039 241.628 33.0895 241.92 32.9347C242.214 32.7782 242.556 32.7008 242.946 32.7025ZM242.954 33.5701C242.782 33.5701 242.629 33.6109 242.494 33.6926C242.362 33.7742 242.256 33.884 242.178 34.0218C242.101 34.1596 242.064 34.3135 242.066 34.4836C242.066 34.6555 242.103 34.8103 242.178 34.9481C242.254 35.0842 242.358 35.193 242.489 35.2747C242.622 35.3546 242.773 35.3946 242.943 35.3946C243.071 35.3946 243.189 35.3708 243.298 35.3232C243.407 35.2755 243.501 35.21 243.581 35.1267C243.663 35.0416 243.727 34.9438 243.773 34.8332C243.819 34.7227 243.842 34.6053 243.842 34.4811C243.84 34.3161 243.801 34.1647 243.724 34.0269C243.648 33.8891 243.542 33.7785 243.408 33.6951C243.273 33.6118 243.122 33.5701 242.954 33.5701Z" fill="#455468"/>
<rect x="90" y="33" width="137.255" height="5" rx="2.5" fill="#EFF1F4"/>
<rect x="90" y="33" width="106.345" height="5" rx="2.5" fill="#891AEE"/>
<line x1="76" y1="9.5" x2="240" y2="9.49998" stroke="#455468"/>
<line x1="240.5" y1="9" x2="240.5" y2="32" stroke="#455468"/>
<line x1="74" y1="52.5" x2="126" y2="52.5" stroke="#455468"/>
<line x1="126.5" y1="40" x2="126.5" y2="53" stroke="#455468"/>
<path d="M3.40057 46.1818C3.37074 45.9299 3.24976 45.7344 3.03764 45.5952C2.82552 45.456 2.56534 45.3864 2.2571 45.3864C2.03172 45.3864 1.83452 45.4228 1.66548 45.4957C1.49811 45.5687 1.36719 45.6689 1.27273 45.7965C1.17992 45.9241 1.13352 46.0691 1.13352 46.2315C1.13352 46.3674 1.16584 46.4843 1.23047 46.582C1.29676 46.6781 1.38127 46.7585 1.48402 46.8232C1.58677 46.8861 1.69448 46.9383 1.80717 46.9798C1.91986 47.0195 2.02344 47.0518 2.1179 47.0767L2.63494 47.2159C2.76752 47.2507 2.91501 47.2988 3.07741 47.3601C3.24148 47.4214 3.39808 47.5051 3.54723 47.6112C3.69804 47.7156 3.82232 47.8498 3.9201 48.0138C4.01787 48.1779 4.06676 48.3793 4.06676 48.6179C4.06676 48.893 3.99467 49.1416 3.8505 49.3636C3.70798 49.5857 3.49917 49.7622 3.22408 49.8931C2.95064 50.024 2.61837 50.0895 2.22727 50.0895C1.86269 50.0895 1.54699 50.0307 1.28018 49.913C1.01503 49.7953 0.806226 49.6313 0.653764 49.4208C0.502959 49.2103 0.417614 48.9659 0.397727 48.6875H1.03409C1.05066 48.8797 1.11529 49.0388 1.22798 49.1648C1.34233 49.2891 1.48651 49.3819 1.66051 49.4432C1.83617 49.5028 2.02509 49.5327 2.22727 49.5327C2.46259 49.5327 2.67389 49.4946 2.86115 49.4183C3.04841 49.3404 3.19673 49.2327 3.30611 49.0952C3.41548 48.956 3.47017 48.7936 3.47017 48.608C3.47017 48.4389 3.42294 48.3014 3.32848 48.1953C3.23402 48.0893 3.10973 48.0031 2.95561 47.9368C2.80149 47.8705 2.63494 47.8125 2.45597 47.7628L1.82955 47.5838C1.43182 47.4695 1.11695 47.3062 0.884943 47.0941C0.652936 46.882 0.536932 46.6044 0.536932 46.2614C0.536932 45.9763 0.613991 45.7277 0.768111 45.5156C0.923887 45.3018 1.13269 45.1361 1.39453 45.0185C1.65803 44.8991 1.95218 44.8395 2.27699 44.8395C2.60511 44.8395 2.89678 44.8983 3.15199 45.016C3.4072 45.132 3.60938 45.2911 3.75852 45.4933C3.90933 45.6954 3.98887 45.925 3.99716 46.1818H3.40057ZM5.0008 51.4318V46.1818H5.56756V46.7884H5.63716C5.68025 46.7221 5.73991 46.6375 5.81614 46.5348C5.89403 46.4304 6.00506 46.3376 6.14924 46.2564C6.29507 46.1735 6.49228 46.1321 6.74086 46.1321C7.06235 46.1321 7.34573 46.2125 7.591 46.3732C7.83626 46.534 8.02767 46.7618 8.16522 47.0568C8.30276 47.3518 8.37154 47.6998 8.37154 48.1009C8.37154 48.5052 8.30276 48.8557 8.16522 49.1523C8.02767 49.4473 7.83709 49.676 7.59348 49.8384C7.34988 49.9992 7.06898 50.0795 6.7508 50.0795C6.50553 50.0795 6.30916 50.0389 6.16167 49.9577C6.01417 49.8749 5.90066 49.7812 5.82111 49.6768C5.74157 49.5708 5.68025 49.483 5.63716 49.4134H5.58745V51.4318H5.0008ZM5.5775 48.0909C5.5775 48.3793 5.61976 48.6336 5.70428 48.854C5.7888 49.0728 5.91226 49.2443 6.07466 49.3686C6.23707 49.4912 6.43593 49.5526 6.67125 49.5526C6.91652 49.5526 7.12118 49.4879 7.28525 49.3587C7.45096 49.2277 7.57525 49.0521 7.65811 48.8317C7.74263 48.6096 7.78489 48.3627 7.78489 48.0909C7.78489 47.8224 7.74346 47.5805 7.6606 47.3651C7.5794 47.148 7.45594 46.9764 7.29022 46.8505C7.12615 46.7229 6.91983 46.6591 6.67125 46.6591C6.43262 46.6591 6.2321 46.7196 6.06969 46.8406C5.90729 46.9599 5.78465 47.1272 5.70179 47.3427C5.61893 47.5565 5.5775 47.8059 5.5775 48.0909ZM10.8673 50.0795C10.4994 50.0795 10.182 49.9983 9.91522 49.8359C9.65007 49.6719 9.4454 49.4432 9.30123 49.1499C9.15871 48.8549 9.08745 48.5118 9.08745 48.1207C9.08745 47.7296 9.15871 47.3849 9.30123 47.0866C9.4454 46.7867 9.64592 46.553 9.90279 46.3857C10.1613 46.2166 10.4629 46.1321 10.8076 46.1321C11.0065 46.1321 11.2029 46.1652 11.3968 46.2315C11.5906 46.2978 11.7671 46.4055 11.9262 46.5547C12.0853 46.7022 12.2121 46.8977 12.3066 47.1413C12.401 47.3849 12.4482 47.6849 12.4482 48.0412V48.2898H9.50506V47.7827H11.8517C11.8517 47.5672 11.8086 47.375 11.7224 47.206C11.6379 47.0369 11.5169 46.9035 11.3595 46.8058C11.2037 46.708 11.0197 46.6591 10.8076 46.6591C10.574 46.6591 10.3718 46.7171 10.2011 46.8331C10.032 46.9474 9.90196 47.0966 9.81081 47.2805C9.71967 47.4645 9.67409 47.6617 9.67409 47.8722V48.2102C9.67409 48.4986 9.72381 48.743 9.82324 48.9435C9.92433 49.1424 10.0644 49.294 10.2433 49.3984C10.4223 49.5012 10.6303 49.5526 10.8673 49.5526C11.0214 49.5526 11.1606 49.531 11.2849 49.4879C11.4108 49.4432 11.5194 49.3769 11.6105 49.2891C11.7017 49.1996 11.7721 49.0885 11.8218 48.956L12.3886 49.1151C12.3289 49.3073 12.2287 49.4763 12.0878 49.6222C11.9469 49.7663 11.7729 49.879 11.5658 49.9602C11.3586 50.0398 11.1258 50.0795 10.8673 50.0795ZM14.8918 50.0795C14.5338 50.0795 14.2256 49.995 13.9671 49.826C13.7085 49.657 13.5097 49.4241 13.3705 49.1275C13.2313 48.8308 13.1617 48.492 13.1617 48.1108C13.1617 47.723 13.2329 47.3808 13.3754 47.0842C13.5196 46.7859 13.7201 46.553 13.977 46.3857C14.2355 46.2166 14.5371 46.1321 14.8818 46.1321C15.1503 46.1321 15.3923 46.1818 15.6077 46.2812C15.8231 46.3807 15.9996 46.5199 16.1372 46.6989C16.2747 46.8778 16.3601 47.0866 16.3932 47.3253H15.8066C15.7618 47.1513 15.6624 46.9972 15.5083 46.8629C15.3558 46.727 15.1503 46.6591 14.8918 46.6591C14.6631 46.6591 14.4626 46.7187 14.2902 46.8381C14.1195 46.9557 13.9861 47.1223 13.89 47.3377C13.7955 47.5515 13.7483 47.8026 13.7483 48.0909C13.7483 48.3859 13.7947 48.6428 13.8875 48.8615C13.982 49.0803 14.1146 49.2501 14.2852 49.3711C14.4576 49.4921 14.6598 49.5526 14.8918 49.5526C15.0442 49.5526 15.1826 49.526 15.3069 49.473C15.4312 49.42 15.5364 49.3438 15.6226 49.2443C15.7088 49.1449 15.7701 49.0256 15.8066 48.8864H16.3932C16.3601 49.1117 16.278 49.3147 16.1471 49.4954C16.0178 49.6744 15.8463 49.8169 15.6325 49.9229C15.4204 50.0273 15.1735 50.0795 14.8918 50.0795ZM17.2508 50V46.1818H17.8374V50H17.2508ZM17.5491 45.5455C17.4347 45.5455 17.3361 45.5065 17.2533 45.4286C17.1721 45.3507 17.1315 45.2571 17.1315 45.1477C17.1315 45.0384 17.1721 44.9447 17.2533 44.8668C17.3361 44.7889 17.4347 44.75 17.5491 44.75C17.6634 44.75 17.7612 44.7889 17.8424 44.8668C17.9253 44.9447 17.9667 45.0384 17.9667 45.1477C17.9667 45.2571 17.9253 45.3507 17.8424 45.4286C17.7612 45.5065 17.6634 45.5455 17.5491 45.5455ZM20.6122 46.1818V46.679H18.554V46.1818H20.6122ZM19.1705 50V45.6548C19.1705 45.4361 19.2218 45.2538 19.3246 45.108C19.4273 44.9621 19.5607 44.8527 19.7248 44.7798C19.8888 44.7069 20.062 44.6705 20.2443 44.6705C20.3885 44.6705 20.5062 44.6821 20.5973 44.7053C20.6884 44.7285 20.7564 44.75 20.8011 44.7699L20.6321 45.277C20.6023 45.267 20.5608 45.2546 20.5078 45.2397C20.4564 45.2248 20.3885 45.2173 20.304 45.2173C20.1101 45.2173 19.9701 45.2662 19.8839 45.364C19.7994 45.4618 19.7571 45.6051 19.7571 45.794V50H19.1705ZM21.4344 50V46.1818H22.021V50H21.4344ZM21.7327 45.5455C21.6183 45.5455 21.5197 45.5065 21.4369 45.4286C21.3557 45.3507 21.3151 45.2571 21.3151 45.1477C21.3151 45.0384 21.3557 44.9447 21.4369 44.8668C21.5197 44.7889 21.6183 44.75 21.7327 44.75C21.847 44.75 21.9448 44.7889 22.026 44.8668C22.1089 44.9447 22.1503 45.0384 22.1503 45.1477C22.1503 45.2571 22.1089 45.3507 22.026 45.4286C21.9448 45.5065 21.847 45.5455 21.7327 45.5455ZM24.6467 50.0795C24.2887 50.0795 23.9805 49.995 23.7219 49.826C23.4634 49.657 23.2646 49.4241 23.1254 49.1275C22.9862 48.8308 22.9165 48.492 22.9165 48.1108C22.9165 47.723 22.9878 47.3808 23.1303 47.0842C23.2745 46.7859 23.475 46.553 23.7319 46.3857C23.9904 46.2166 24.292 46.1321 24.6367 46.1321C24.9052 46.1321 25.1471 46.1818 25.3626 46.2812C25.578 46.3807 25.7545 46.5199 25.892 46.6989C26.0296 46.8778 26.1149 47.0866 26.1481 47.3253H25.5614C25.5167 47.1513 25.4173 46.9972 25.2631 46.8629C25.1107 46.727 24.9052 46.6591 24.6467 46.6591C24.418 46.6591 24.2174 46.7187 24.0451 46.8381C23.8744 46.9557 23.741 47.1223 23.6449 47.3377C23.5504 47.5515 23.5032 47.8026 23.5032 48.0909C23.5032 48.3859 23.5496 48.6428 23.6424 48.8615C23.7369 49.0803 23.8694 49.2501 24.0401 49.3711C24.2125 49.4921 24.4147 49.5526 24.6467 49.5526C24.7991 49.5526 24.9375 49.526 25.0618 49.473C25.1861 49.42 25.2913 49.3438 25.3775 49.2443C25.4637 49.1449 25.525 49.0256 25.5614 48.8864H26.1481C26.1149 49.1117 26.0329 49.3147 25.902 49.4954C25.7727 49.6744 25.6012 49.8169 25.3874 49.9229C25.1753 50.0273 24.9284 50.0795 24.6467 50.0795ZM28.9744 50V46.1818H29.5412V46.7585H29.581C29.6506 46.5696 29.7765 46.4163 29.9588 46.2987C30.1411 46.181 30.3466 46.1222 30.5753 46.1222C30.6184 46.1222 30.6722 46.123 30.7369 46.1246C30.8015 46.1263 30.8504 46.1288 30.8835 46.1321V46.7287C30.8636 46.7237 30.8181 46.7163 30.7468 46.7063C30.6772 46.6947 30.6035 46.6889 30.5256 46.6889C30.34 46.6889 30.1742 46.7279 30.0284 46.8058C29.8842 46.882 29.7699 46.988 29.6854 47.1239C29.6025 47.2582 29.5611 47.4115 29.5611 47.5838V50H28.9744ZM32.7025 50.0895C32.4606 50.0895 32.241 50.0439 32.0438 49.9528C31.8466 49.86 31.69 49.7266 31.574 49.5526C31.4579 49.3769 31.3999 49.1648 31.3999 48.9162C31.3999 48.6974 31.443 48.5201 31.5292 48.3842C31.6154 48.2467 31.7306 48.139 31.8747 48.0611C32.0189 47.9832 32.178 47.9252 32.352 47.8871C32.5277 47.8473 32.7042 47.8158 32.8815 47.7926C33.1135 47.7628 33.3016 47.7404 33.4458 47.7255C33.5916 47.7089 33.6977 47.6816 33.7639 47.6435C33.8319 47.6054 33.8659 47.5391 33.8659 47.4446V47.4247C33.8659 47.1795 33.7987 46.9889 33.6645 46.853C33.5319 46.7171 33.3306 46.6491 33.0605 46.6491C32.7804 46.6491 32.5608 46.7105 32.4017 46.8331C32.2426 46.9557 32.1308 47.0866 32.0661 47.2259L31.5093 47.027C31.6088 46.795 31.7413 46.6143 31.907 46.4851C32.0744 46.3542 32.2567 46.263 32.4539 46.2116C32.6528 46.1586 32.8483 46.1321 33.0406 46.1321C33.1632 46.1321 33.3041 46.147 33.4632 46.1768C33.6239 46.205 33.7789 46.2638 33.928 46.3533C34.0788 46.4428 34.2039 46.5779 34.3034 46.7585C34.4028 46.9392 34.4525 47.1811 34.4525 47.4844V50H33.8659V49.483H33.836C33.7963 49.5658 33.73 49.6545 33.6372 49.7489C33.5444 49.8434 33.4209 49.9238 33.2668 49.9901C33.1127 50.0563 32.9246 50.0895 32.7025 50.0895ZM32.792 49.5625C33.024 49.5625 33.2195 49.5169 33.3786 49.4258C33.5394 49.3346 33.6604 49.217 33.7416 49.0728C33.8244 48.9286 33.8659 48.777 33.8659 48.6179V48.081C33.841 48.1108 33.7863 48.1381 33.7018 48.163C33.6189 48.1862 33.5228 48.2069 33.4134 48.2251C33.3057 48.2417 33.2005 48.2566 33.0977 48.2699C32.9967 48.2815 32.9146 48.2914 32.8517 48.2997C32.6992 48.3196 32.5567 48.3519 32.4241 48.3967C32.2932 48.4397 32.1871 48.5052 32.1059 48.593C32.0264 48.6792 31.9866 48.7969 31.9866 48.946C31.9866 49.1499 32.062 49.304 32.2128 49.4084C32.3653 49.5111 32.5583 49.5625 32.792 49.5625ZM37.1838 46.1818V46.679H35.2051V46.1818H37.1838ZM35.7818 45.267H36.3684V48.9062C36.3684 49.072 36.3925 49.1963 36.4405 49.2791C36.4902 49.3603 36.5532 49.415 36.6294 49.4432C36.7073 49.4697 36.7894 49.483 36.8755 49.483C36.9402 49.483 36.9932 49.4796 37.0346 49.473C37.0761 49.4647 37.1092 49.4581 37.1341 49.4531L37.2534 49.9801C37.2136 49.995 37.1581 50.0099 37.0868 50.0249C37.0156 50.0414 36.9252 50.0497 36.8159 50.0497C36.6502 50.0497 36.4877 50.0141 36.3287 49.9428C36.1712 49.8716 36.0403 49.763 35.9359 49.6172C35.8332 49.4714 35.7818 49.2874 35.7818 49.0653V45.267ZM38.0662 50V46.1818H38.6529V50H38.0662ZM38.3645 45.5455C38.2502 45.5455 38.1516 45.5065 38.0687 45.4286C37.9875 45.3507 37.9469 45.2571 37.9469 45.1477C37.9469 45.0384 37.9875 44.9447 38.0687 44.8668C38.1516 44.7889 38.2502 44.75 38.3645 44.75C38.4789 44.75 38.5766 44.7889 38.6578 44.8668C38.7407 44.9447 38.7821 45.0384 38.7821 45.1477C38.7821 45.2571 38.7407 45.3507 38.6578 45.4286C38.5766 45.5065 38.4789 45.5455 38.3645 45.5455ZM40.314 47.7031V50H39.7274V46.1818H40.2941V46.7784H40.3438C40.4333 46.5845 40.5692 46.4287 40.7515 46.3111C40.9338 46.1918 41.1691 46.1321 41.4575 46.1321C41.716 46.1321 41.9422 46.1851 42.1361 46.2912C42.33 46.3956 42.4808 46.5547 42.5885 46.7685C42.6962 46.9806 42.7501 47.2491 42.7501 47.5739V50H42.1634V47.6136C42.1634 47.3137 42.0856 47.08 41.9298 46.9126C41.774 46.7436 41.5602 46.6591 41.2884 46.6591C41.1012 46.6591 40.9338 46.6997 40.7863 46.7809C40.6405 46.8621 40.5253 46.9806 40.4408 47.1364C40.3563 47.2921 40.314 47.4811 40.314 47.7031ZM45.3633 51.5114C45.0799 51.5114 44.8363 51.4749 44.6325 51.402C44.4286 51.3307 44.2588 51.2363 44.1229 51.1186C43.9886 51.0026 43.8817 50.8783 43.8022 50.7457L44.2695 50.4176C44.3226 50.4872 44.3897 50.5668 44.4709 50.6562C44.5521 50.7474 44.6631 50.8261 44.804 50.8924C44.9465 50.9603 45.1329 50.9943 45.3633 50.9943C45.6715 50.9943 45.9259 50.9197 46.1264 50.7706C46.3269 50.6214 46.4272 50.3878 46.4272 50.0696V49.294H46.3775C46.3344 49.3636 46.2731 49.4498 46.1935 49.5526C46.1156 49.6536 46.003 49.744 45.8555 49.8235C45.7096 49.9014 45.5124 49.9403 45.2638 49.9403C44.9556 49.9403 44.6789 49.8674 44.4336 49.7216C44.19 49.5758 43.9969 49.3636 43.8544 49.0852C43.7135 48.8068 43.6431 48.4687 43.6431 48.071C43.6431 47.6799 43.7119 47.3394 43.8494 47.0494C43.987 46.7577 44.1784 46.5323 44.4237 46.3732C44.6689 46.2125 44.9523 46.1321 45.2738 46.1321C45.5224 46.1321 45.7196 46.1735 45.8654 46.2564C46.0129 46.3376 46.1256 46.4304 46.2035 46.5348C46.283 46.6375 46.3443 46.7221 46.3874 46.7884H46.4471V46.1818H47.0138V50.1094C47.0138 50.4375 46.9393 50.7043 46.7901 50.9098C46.6426 51.117 46.4438 51.2686 46.1935 51.3647C45.945 51.4625 45.6682 51.5114 45.3633 51.5114ZM45.3434 49.4134C45.5787 49.4134 45.7776 49.3595 45.94 49.2518C46.1024 49.1441 46.2259 48.9891 46.3104 48.7869C46.3949 48.5848 46.4371 48.3428 46.4371 48.0611C46.4371 47.786 46.3957 47.5432 46.3129 47.3327C46.23 47.1223 46.1074 46.9574 45.945 46.8381C45.7826 46.7187 45.582 46.6591 45.3434 46.6591C45.0948 46.6591 44.8877 46.7221 44.7219 46.848C44.5579 46.974 44.4344 47.143 44.3516 47.3551C44.2704 47.5672 44.2298 47.8026 44.2298 48.0611C44.2298 48.3262 44.2712 48.5607 44.354 48.7646C44.4386 48.9667 44.5629 49.1258 44.7269 49.2418C44.8926 49.3562 45.0981 49.4134 45.3434 49.4134ZM51.7567 46.1818V46.679H49.6985V46.1818H51.7567ZM50.315 50V45.6548C50.315 45.4361 50.3664 45.2538 50.4691 45.108C50.5719 44.9621 50.7053 44.8527 50.8693 44.7798C51.0334 44.7069 51.2066 44.6705 51.3888 44.6705C51.533 44.6705 51.6507 44.6821 51.7418 44.7053C51.833 44.7285 51.9009 44.75 51.9457 44.7699L51.7766 45.277C51.7468 45.267 51.7054 45.2546 51.6523 45.2397C51.601 45.2248 51.533 45.2173 51.4485 45.2173C51.2546 45.2173 51.1146 45.2662 51.0284 45.364C50.9439 45.4618 50.9016 45.6051 50.9016 45.794V50H50.315ZM53.9728 50.0795C53.6281 50.0795 53.3257 49.9975 53.0655 49.8335C52.807 49.6694 52.6048 49.4399 52.459 49.1449C52.3148 48.8499 52.2427 48.5052 52.2427 48.1108C52.2427 47.7131 52.3148 47.3659 52.459 47.0692C52.6048 46.7726 52.807 46.5423 53.0655 46.3782C53.3257 46.2141 53.6281 46.1321 53.9728 46.1321C54.3175 46.1321 54.6191 46.2141 54.8777 46.3782C55.1378 46.5423 55.34 46.7726 55.4842 47.0692C55.63 47.3659 55.7029 47.7131 55.7029 48.1108C55.7029 48.5052 55.63 48.8499 55.4842 49.1449C55.34 49.4399 55.1378 49.6694 54.8777 49.8335C54.6191 49.9975 54.3175 50.0795 53.9728 50.0795ZM53.9728 49.5526C54.2347 49.5526 54.4501 49.4854 54.6191 49.3512C54.7882 49.217 54.9133 49.0405 54.9945 48.8217C55.0757 48.603 55.1163 48.366 55.1163 48.1108C55.1163 47.8556 55.0757 47.6178 54.9945 47.3974C54.9133 47.177 54.7882 46.9988 54.6191 46.8629C54.4501 46.727 54.2347 46.6591 53.9728 46.6591C53.711 46.6591 53.4956 46.727 53.3265 46.8629C53.1575 46.9988 53.0324 47.177 52.9512 47.3974C52.87 47.6178 52.8294 47.8556 52.8294 48.1108C52.8294 48.366 52.87 48.603 52.9512 48.8217C53.0324 49.0405 53.1575 49.217 53.3265 49.3512C53.4956 49.4854 53.711 49.5526 53.9728 49.5526ZM56.5985 50V46.1818H57.1652V46.7585H57.205C57.2746 46.5696 57.4005 46.4163 57.5828 46.2987C57.7651 46.181 57.9706 46.1222 58.1993 46.1222C58.2424 46.1222 58.2963 46.123 58.3609 46.1246C58.4255 46.1263 58.4744 46.1288 58.5075 46.1321V46.7287C58.4877 46.7237 58.4421 46.7163 58.3708 46.7063C58.3012 46.6947 58.2275 46.6889 58.1496 46.6889C57.964 46.6889 57.7983 46.7279 57.6524 46.8058C57.5083 46.882 57.3939 46.988 57.3094 47.1239C57.2265 47.2582 57.1851 47.4115 57.1851 47.5838V50H56.5985ZM2.19744 54.1818V54.679H0.21875V54.1818H2.19744ZM0.795455 53.267H1.3821V56.9062C1.3821 57.072 1.40613 57.1963 1.45419 57.2791C1.50391 57.3603 1.56688 57.415 1.64311 57.4432C1.721 57.4697 1.80303 57.483 1.8892 57.483C1.95384 57.483 2.00687 57.4796 2.0483 57.473C2.08973 57.4647 2.12287 57.4581 2.14773 57.4531L2.26705 57.9801C2.22727 57.995 2.17176 58.0099 2.1005 58.0249C2.02924 58.0414 1.93892 58.0497 1.82955 58.0497C1.66383 58.0497 1.50142 58.0141 1.34233 57.9428C1.1849 57.8716 1.05398 57.763 0.949574 57.6172C0.846828 57.4714 0.795455 57.2874 0.795455 57.0653V53.267ZM3.74858 55.7031V58H3.16193V52.9091H3.74858V54.7784H3.7983C3.88778 54.5812 4.02202 54.4246 4.20099 54.3086C4.38163 54.1909 4.62192 54.1321 4.92188 54.1321C5.18205 54.1321 5.40992 54.1843 5.60547 54.2887C5.80102 54.3915 5.95265 54.5497 6.06037 54.7635C6.16974 54.9756 6.22443 55.2457 6.22443 55.5739V58H5.63778V55.6136C5.63778 55.3104 5.55907 55.0759 5.40163 54.9102C5.24586 54.7428 5.02959 54.6591 4.75284 54.6591C4.56061 54.6591 4.38826 54.6997 4.2358 54.7809C4.08499 54.8621 3.96567 54.9806 3.87784 55.1364C3.79167 55.2921 3.74858 55.4811 3.74858 55.7031ZM7.29767 58V54.1818H7.88432V58H7.29767ZM7.59597 53.5455C7.48162 53.5455 7.38302 53.5065 7.30016 53.4286C7.21896 53.3507 7.17836 53.2571 7.17836 53.1477C7.17836 53.0384 7.21896 52.9447 7.30016 52.8668C7.38302 52.7889 7.48162 52.75 7.59597 52.75C7.71032 52.75 7.80809 52.7889 7.88929 52.8668C7.97215 52.9447 8.01358 53.0384 8.01358 53.1477C8.01358 53.2571 7.97215 53.3507 7.88929 53.4286C7.80809 53.5065 7.71032 53.5455 7.59597 53.5455ZM11.6634 55.0369L11.1364 55.1861C11.1032 55.0982 11.0543 55.0129 10.9897 54.93C10.9267 54.8455 10.8406 54.7759 10.7312 54.7212C10.6218 54.6665 10.4818 54.6392 10.3111 54.6392C10.0774 54.6392 9.88269 54.6931 9.72692 54.8008C9.5728 54.9068 9.49574 55.0419 9.49574 55.206C9.49574 55.3518 9.54877 55.467 9.65483 55.5515C9.76089 55.636 9.92661 55.7064 10.152 55.7628L10.7188 55.902C11.0601 55.9848 11.3145 56.1116 11.4819 56.2823C11.6493 56.4513 11.733 56.6693 11.733 56.9361C11.733 57.1548 11.67 57.3504 11.544 57.5227C11.4197 57.6951 11.2457 57.831 11.022 57.9304C10.7983 58.0298 10.5381 58.0795 10.2415 58.0795C9.85204 58.0795 9.52971 57.995 9.2745 57.826C9.01929 57.657 8.85772 57.41 8.78977 57.0852L9.34659 56.946C9.39962 57.1515 9.49988 57.3056 9.64737 57.4084C9.79652 57.5111 9.99124 57.5625 10.2315 57.5625C10.505 57.5625 10.7221 57.5045 10.8828 57.3885C11.0452 57.2708 11.1264 57.13 11.1264 56.9659C11.1264 56.8333 11.08 56.7223 10.9872 56.6328C10.8944 56.5417 10.7519 56.4737 10.5597 56.429L9.9233 56.2798C9.57363 56.197 9.31676 56.0685 9.1527 55.8945C8.99029 55.7189 8.90909 55.4993 8.90909 55.2358C8.90909 55.0204 8.96958 54.8298 9.09055 54.6641C9.21319 54.4983 9.37973 54.3683 9.5902 54.2738C9.80232 54.1793 10.0426 54.1321 10.3111 54.1321C10.6889 54.1321 10.9856 54.215 11.201 54.3807C11.4181 54.5464 11.5722 54.7652 11.6634 55.0369ZM16.0265 58.0795C15.7084 58.0795 15.4275 57.9992 15.1839 57.8384C14.9403 57.676 14.7497 57.4473 14.6121 57.1523C14.4746 56.8557 14.4058 56.5052 14.4058 56.1009C14.4058 55.6998 14.4746 55.3518 14.6121 55.0568C14.7497 54.7618 14.9411 54.534 15.1863 54.3732C15.4316 54.2125 15.715 54.1321 16.0365 54.1321C16.2851 54.1321 16.4814 54.1735 16.6256 54.2564C16.7715 54.3376 16.8825 54.4304 16.9587 54.5348C17.0366 54.6375 17.0971 54.7221 17.1402 54.7884H17.1899V52.9091H17.7765V58H17.2098V57.4134H17.1402C17.0971 57.483 17.0358 57.5708 16.9562 57.6768C16.8767 57.7812 16.7632 57.8749 16.6157 57.9577C16.4682 58.0389 16.2718 58.0795 16.0265 58.0795ZM16.1061 57.5526C16.3414 57.5526 16.5403 57.4912 16.7027 57.3686C16.8651 57.2443 16.9885 57.0728 17.0731 56.854C17.1576 56.6336 17.1998 56.3793 17.1998 56.0909C17.1998 55.8059 17.1584 55.5565 17.0756 55.3427C16.9927 55.1272 16.8701 54.9599 16.7077 54.8406C16.5452 54.7196 16.3447 54.6591 16.1061 54.6591C15.8575 54.6591 15.6504 54.7229 15.4846 54.8505C15.3206 54.9764 15.1971 55.148 15.1143 55.3651C15.0331 55.5805 14.9925 55.8224 14.9925 56.0909C14.9925 56.3627 15.0339 56.6096 15.1167 56.8317C15.2013 57.0521 15.3256 57.2277 15.4896 57.3587C15.6553 57.4879 15.8608 57.5526 16.1061 57.5526ZM20.4836 58.0795C20.1389 58.0795 19.8364 57.9975 19.5763 57.8335C19.3177 57.6694 19.1156 57.4399 18.9697 57.1449C18.8256 56.8499 18.7535 56.5052 18.7535 56.1108C18.7535 55.7131 18.8256 55.3659 18.9697 55.0692C19.1156 54.7726 19.3177 54.5423 19.5763 54.3782C19.8364 54.2141 20.1389 54.1321 20.4836 54.1321C20.8283 54.1321 21.1299 54.2141 21.3884 54.3782C21.6486 54.5423 21.8508 54.7726 21.9949 55.0692C22.1408 55.3659 22.2137 55.7131 22.2137 56.1108C22.2137 56.5052 22.1408 56.8499 21.9949 57.1449C21.8508 57.4399 21.6486 57.6694 21.3884 57.8335C21.1299 57.9975 20.8283 58.0795 20.4836 58.0795ZM20.4836 57.5526C20.7454 57.5526 20.9608 57.4854 21.1299 57.3512C21.2989 57.217 21.424 57.0405 21.5052 56.8217C21.5864 56.603 21.627 56.366 21.627 56.1108C21.627 55.8556 21.5864 55.6178 21.5052 55.3974C21.424 55.177 21.2989 54.9988 21.1299 54.8629C20.9608 54.727 20.7454 54.6591 20.4836 54.6591C20.2217 54.6591 20.0063 54.727 19.8373 54.8629C19.6682 54.9988 19.5431 55.177 19.4619 55.3974C19.3807 55.6178 19.3401 55.8556 19.3401 56.1108C19.3401 56.366 19.3807 56.603 19.4619 56.8217C19.5431 57.0405 19.6682 57.217 19.8373 57.3512C20.0063 57.4854 20.2217 57.5526 20.4836 57.5526ZM23.1092 58V54.1818H23.676V54.7784H23.7257C23.8052 54.5746 23.9337 54.4163 24.111 54.3036C24.2883 54.1893 24.5012 54.1321 24.7498 54.1321C25.0017 54.1321 25.2114 54.1893 25.3787 54.3036C25.5478 54.4163 25.6795 54.5746 25.774 54.7784H25.8137C25.9115 54.5812 26.0582 54.4246 26.2537 54.3086C26.4493 54.1909 26.6838 54.1321 26.9572 54.1321C27.2986 54.1321 27.5778 54.239 27.7949 54.4528C28.012 54.6649 28.1206 54.9955 28.1206 55.4446V58H27.5339V55.4446C27.5339 55.1629 27.4569 54.9615 27.3027 54.8406C27.1486 54.7196 26.9672 54.6591 26.7583 54.6591C26.4899 54.6591 26.2819 54.7403 26.1344 54.9027C25.9869 55.0634 25.9132 55.2673 25.9132 55.5142V58H25.3166V55.3849C25.3166 55.1679 25.2462 54.993 25.1053 54.8604C24.9644 54.7262 24.783 54.6591 24.5609 54.6591C24.4084 54.6591 24.2659 54.6997 24.1333 54.7809C24.0024 54.8621 23.8964 54.9748 23.8152 55.119C23.7356 55.2615 23.6958 55.4264 23.6958 55.6136V58H23.1092ZM30.3168 58.0895C30.0748 58.0895 29.8552 58.0439 29.658 57.9528C29.4608 57.86 29.3042 57.7266 29.1882 57.5526C29.0722 57.3769 29.0142 57.1648 29.0142 56.9162C29.0142 56.6974 29.0573 56.5201 29.1435 56.3842C29.2296 56.2467 29.3448 56.139 29.489 56.0611C29.6332 55.9832 29.7923 55.9252 29.9663 55.8871C30.1419 55.8473 30.3184 55.8158 30.4957 55.7926C30.7277 55.7628 30.9158 55.7404 31.06 55.7255C31.2058 55.7089 31.3119 55.6816 31.3782 55.6435C31.4461 55.6054 31.4801 55.5391 31.4801 55.4446V55.4247C31.4801 55.1795 31.413 54.9889 31.2788 54.853C31.1462 54.7171 30.9448 54.6491 30.6747 54.6491C30.3946 54.6491 30.1751 54.7105 30.016 54.8331C29.8569 54.9557 29.745 55.0866 29.6804 55.2259L29.1236 55.027C29.223 54.795 29.3556 54.6143 29.5213 54.4851C29.6887 54.3542 29.871 54.263 30.0682 54.2116C30.267 54.1586 30.4626 54.1321 30.6548 54.1321C30.7775 54.1321 30.9183 54.147 31.0774 54.1768C31.2382 54.205 31.3931 54.2638 31.5423 54.3533C31.6931 54.4428 31.8182 54.5779 31.9176 54.7585C32.017 54.9392 32.0668 55.1811 32.0668 55.4844V58H31.4801V57.483H31.4503C31.4105 57.5658 31.3442 57.6545 31.2514 57.7489C31.1586 57.8434 31.0352 57.9238 30.881 57.9901C30.7269 58.0563 30.5388 58.0895 30.3168 58.0895ZM30.4062 57.5625C30.6383 57.5625 30.8338 57.5169 30.9929 57.4258C31.1536 57.3346 31.2746 57.217 31.3558 57.0728C31.4387 56.9286 31.4801 56.777 31.4801 56.6179V56.081C31.4553 56.1108 31.4006 56.1381 31.3161 56.163C31.2332 56.1862 31.1371 56.2069 31.0277 56.2251C30.92 56.2417 30.8147 56.2566 30.712 56.2699C30.6109 56.2815 30.5289 56.2914 30.4659 56.2997C30.3134 56.3196 30.1709 56.3519 30.0384 56.3967C29.9074 56.4397 29.8014 56.5052 29.7202 56.593C29.6406 56.6792 29.6009 56.7969 29.6009 56.946C29.6009 57.1499 29.6763 57.304 29.8271 57.4084C29.9795 57.5111 30.1726 57.5625 30.4062 57.5625ZM33.1375 58V54.1818H33.7242V58H33.1375ZM33.4358 53.5455C33.3215 53.5455 33.2229 53.5065 33.14 53.4286C33.0588 53.3507 33.0182 53.2571 33.0182 53.1477C33.0182 53.0384 33.0588 52.9447 33.14 52.8668C33.2229 52.7889 33.3215 52.75 33.4358 52.75C33.5502 52.75 33.6479 52.7889 33.7291 52.8668C33.812 52.9447 33.8534 53.0384 33.8534 53.1477C33.8534 53.2571 33.812 53.3507 33.7291 53.4286C33.6479 53.5065 33.5502 53.5455 33.4358 53.5455ZM35.3853 55.7031V58H34.7987V54.1818H35.3654V54.7784H35.4151C35.5046 54.5845 35.6405 54.4287 35.8228 54.3111C36.0051 54.1918 36.2404 54.1321 36.5288 54.1321C36.7873 54.1321 37.0135 54.1851 37.2074 54.2912C37.4013 54.3956 37.5521 54.5547 37.6598 54.7685C37.7675 54.9806 37.8214 55.2491 37.8214 55.5739V58H37.2347V55.6136C37.2347 55.3137 37.1568 55.08 37.0011 54.9126C36.8453 54.7436 36.6315 54.6591 36.3597 54.6591C36.1725 54.6591 36.0051 54.6997 35.8576 54.7809C35.7118 54.8621 35.5966 54.9806 35.5121 55.1364C35.4276 55.2921 35.3853 55.4811 35.3853 55.7031ZM42.4133 58.0795C42.0686 58.0795 41.7661 57.9975 41.5059 57.8335C41.2474 57.6694 41.0452 57.4399 40.8994 57.1449C40.7552 56.8499 40.6831 56.5052 40.6831 56.1108C40.6831 55.7131 40.7552 55.3659 40.8994 55.0692C41.0452 54.7726 41.2474 54.5423 41.5059 54.3782C41.7661 54.2141 42.0686 54.1321 42.4133 54.1321C42.758 54.1321 43.0596 54.2141 43.3181 54.3782C43.5783 54.5423 43.7805 54.7726 43.9246 55.0692C44.0705 55.3659 44.1434 55.7131 44.1434 56.1108C44.1434 56.5052 44.0705 56.8499 43.9246 57.1449C43.7805 57.4399 43.5783 57.6694 43.3181 57.8335C43.0596 57.9975 42.758 58.0795 42.4133 58.0795ZM42.4133 57.5526C42.6751 57.5526 42.8905 57.4854 43.0596 57.3512C43.2286 57.217 43.3537 57.0405 43.4349 56.8217C43.5161 56.603 43.5567 56.366 43.5567 56.1108C43.5567 55.8556 43.5161 55.6178 43.4349 55.3974C43.3537 55.177 43.2286 54.9988 43.0596 54.8629C42.8905 54.727 42.6751 54.6591 42.4133 54.6591C42.1514 54.6591 41.936 54.727 41.767 54.8629C41.5979 54.9988 41.4728 55.177 41.3916 55.3974C41.3104 55.6178 41.2698 55.8556 41.2698 56.1108C41.2698 56.366 41.3104 56.603 41.3916 56.8217C41.4728 57.0405 41.5979 57.217 41.767 57.3512C41.936 57.4854 42.1514 57.5526 42.4133 57.5526ZM45.6255 55.7031V58H45.0389V54.1818H45.6056V54.7784H45.6554C45.7449 54.5845 45.8807 54.4287 46.063 54.3111C46.2453 54.1918 46.4806 54.1321 46.769 54.1321C47.0275 54.1321 47.2537 54.1851 47.4476 54.2912C47.6415 54.3956 47.7923 54.5547 47.9 54.7685C48.0078 54.9806 48.0616 55.2491 48.0616 55.5739V58H47.475V55.6136C47.475 55.3137 47.3971 55.08 47.2413 54.9126C47.0855 54.7436 46.8717 54.6591 46.6 54.6591C46.4127 54.6591 46.2453 54.6997 46.0978 54.7809C45.952 54.8621 45.8368 54.9806 45.7523 55.1364C45.6678 55.2921 45.6255 55.4811 45.6255 55.7031ZM52.6436 59.5114C52.3602 59.5114 52.1166 59.4749 51.9127 59.402C51.7089 59.3307 51.539 59.2363 51.4031 59.1186C51.2689 59.0026 51.162 58.8783 51.0825 58.7457L51.5498 58.4176C51.6028 58.4872 51.67 58.5668 51.7512 58.6562C51.8324 58.7474 51.9434 58.8261 52.0843 58.8924C52.2268 58.9603 52.4132 58.9943 52.6436 58.9943C52.9518 58.9943 53.2062 58.9197 53.4067 58.7706C53.6072 58.6214 53.7075 58.3878 53.7075 58.0696V57.294H53.6578C53.6147 57.3636 53.5534 57.4498 53.4738 57.5526C53.3959 57.6536 53.2832 57.744 53.1357 57.8235C52.9899 57.9014 52.7927 57.9403 52.5441 57.9403C52.2359 57.9403 51.9591 57.8674 51.7139 57.7216C51.4703 57.5758 51.2772 57.3636 51.1347 57.0852C50.9938 56.8068 50.9234 56.4687 50.9234 56.071C50.9234 55.6799 50.9922 55.3394 51.1297 55.0494C51.2673 54.7577 51.4587 54.5323 51.7039 54.3732C51.9492 54.2125 52.2326 54.1321 52.5541 54.1321C52.8026 54.1321 52.9999 54.1735 53.1457 54.2564C53.2932 54.3376 53.4059 54.4304 53.4838 54.5348C53.5633 54.6375 53.6246 54.7221 53.6677 54.7884H53.7274V54.1818H54.2941V58.1094C54.2941 58.4375 54.2195 58.7043 54.0704 58.9098C53.9229 59.117 53.724 59.2686 53.4738 59.3647C53.2252 59.4625 52.9485 59.5114 52.6436 59.5114ZM52.6237 57.4134C52.859 57.4134 53.0579 57.3595 53.2203 57.2518C53.3827 57.1441 53.5061 56.9891 53.5906 56.7869C53.6752 56.5848 53.7174 56.3428 53.7174 56.0611C53.7174 55.786 53.676 55.5432 53.5931 55.3327C53.5103 55.1223 53.3876 54.9574 53.2252 54.8381C53.0628 54.7187 52.8623 54.6591 52.6237 54.6591C52.3751 54.6591 52.1679 54.7221 52.0022 54.848C51.8382 54.974 51.7147 55.143 51.6318 55.3551C51.5506 55.5672 51.51 55.8026 51.51 56.0611C51.51 56.3262 51.5515 56.5607 51.6343 56.7646C51.7188 56.9667 51.8431 57.1258 52.0072 57.2418C52.1729 57.3562 52.3784 57.4134 52.6237 57.4134ZM55.368 58V54.1818H55.9347V54.7585H55.9745C56.0441 54.5696 56.1701 54.4163 56.3524 54.2987C56.5347 54.181 56.7401 54.1222 56.9688 54.1222C57.0119 54.1222 57.0658 54.123 57.1304 54.1246C57.195 54.1263 57.2439 54.1288 57.2771 54.1321V54.7287C57.2572 54.7237 57.2116 54.7163 57.1404 54.7063C57.0708 54.6947 56.997 54.6889 56.9191 54.6889C56.7335 54.6889 56.5678 54.7279 56.422 54.8058C56.2778 54.882 56.1634 54.988 56.0789 55.1239C55.9961 55.2582 55.9546 55.4115 55.9546 55.5838V58H55.368ZM59.0961 58.0895C58.8541 58.0895 58.6345 58.0439 58.4373 57.9528C58.2401 57.86 58.0835 57.7266 57.9675 57.5526C57.8515 57.3769 57.7935 57.1648 57.7935 56.9162C57.7935 56.6974 57.8366 56.5201 57.9228 56.3842C58.0089 56.2467 58.1241 56.139 58.2683 56.0611C58.4125 55.9832 58.5716 55.9252 58.7456 55.8871C58.9212 55.8473 59.0977 55.8158 59.275 55.7926C59.507 55.7628 59.6951 55.7404 59.8393 55.7255C59.9851 55.7089 60.0912 55.6816 60.1575 55.6435C60.2254 55.6054 60.2594 55.5391 60.2594 55.4446V55.4247C60.2594 55.1795 60.1923 54.9889 60.0581 54.853C59.9255 54.7171 59.7241 54.6491 59.454 54.6491C59.1739 54.6491 58.9544 54.7105 58.7953 54.8331C58.6362 54.9557 58.5243 55.0866 58.4597 55.2259L57.9029 55.027C58.0023 54.795 58.1349 54.6143 58.3006 54.4851C58.468 54.3542 58.6503 54.263 58.8475 54.2116C59.0463 54.1586 59.2419 54.1321 59.4341 54.1321C59.5568 54.1321 59.6976 54.147 59.8567 54.1768C60.0175 54.205 60.1724 54.2638 60.3216 54.3533C60.4724 54.4428 60.5975 54.5779 60.6969 54.7585C60.7963 54.9392 60.8461 55.1811 60.8461 55.4844V58H60.2594V57.483H60.2296C60.1898 57.5658 60.1235 57.6545 60.0307 57.7489C59.9379 57.8434 59.8145 57.9238 59.6603 57.9901C59.5062 58.0563 59.3181 58.0895 59.0961 58.0895ZM59.1855 57.5625C59.4176 57.5625 59.6131 57.5169 59.7722 57.4258C59.9329 57.3346 60.0539 57.217 60.1351 57.0728C60.218 56.9286 60.2594 56.777 60.2594 56.6179V56.081C60.2346 56.1108 60.1799 56.1381 60.0953 56.163C60.0125 56.1862 59.9164 56.2069 59.807 56.2251C59.6993 56.2417 59.594 56.2566 59.4913 56.2699C59.3902 56.2815 59.3082 56.2914 59.2452 56.2997C59.0927 56.3196 58.9502 56.3519 58.8176 56.3967C58.6867 56.4397 58.5807 56.5052 58.4995 56.593C58.4199 56.6792 58.3801 56.7969 58.3801 56.946C58.3801 57.1499 58.4556 57.304 58.6064 57.4084C58.7588 57.5111 58.9519 57.5625 59.1855 57.5625ZM61.9168 59.4318V54.1818H62.4836V54.7884H62.5532C62.5963 54.7221 62.6559 54.6375 62.7322 54.5348C62.81 54.4304 62.9211 54.3376 63.0653 54.2564C63.2111 54.1735 63.4083 54.1321 63.6569 54.1321C63.9784 54.1321 64.2617 54.2125 64.507 54.3732C64.7523 54.534 64.9437 54.7618 65.0812 55.0568C65.2188 55.3518 65.2876 55.6998 65.2876 56.1009C65.2876 56.5052 65.2188 56.8557 65.0812 57.1523C64.9437 57.4473 64.7531 57.676 64.5095 57.8384C64.2659 57.9992 63.985 58.0795 63.6668 58.0795C63.4215 58.0795 63.2252 58.0389 63.0777 57.9577C62.9302 57.8749 62.8167 57.7812 62.7371 57.6768C62.6576 57.5708 62.5963 57.483 62.5532 57.4134H62.5035V59.4318H61.9168ZM62.4935 56.0909C62.4935 56.3793 62.5358 56.6336 62.6203 56.854C62.7048 57.0728 62.8283 57.2443 62.9907 57.3686C63.1531 57.4912 63.3519 57.5526 63.5873 57.5526C63.8325 57.5526 64.0372 57.4879 64.2013 57.3587C64.367 57.2277 64.4913 57.0521 64.5741 56.8317C64.6586 56.6096 64.7009 56.3627 64.7009 56.0909C64.7009 55.8224 64.6595 55.5805 64.5766 55.3651C64.4954 55.148 64.372 54.9764 64.2062 54.8505C64.0422 54.7229 63.8358 54.6591 63.5873 54.6591C63.3486 54.6591 63.1481 54.7196 62.9857 54.8406C62.8233 54.9599 62.7007 55.1272 62.6178 55.3427C62.5349 55.5565 62.4935 55.8059 62.4935 56.0909ZM66.7691 55.7031V58H66.1824V52.9091H66.7691V54.7784H66.8188C66.9083 54.5812 67.0425 54.4246 67.2215 54.3086C67.4021 54.1909 67.6424 54.1321 67.9424 54.1321C68.2026 54.1321 68.4304 54.1843 68.626 54.2887C68.8215 54.3915 68.9732 54.5497 69.0809 54.7635C69.1903 54.9756 69.2449 55.2457 69.2449 55.5739V58H68.6583V55.6136C68.6583 55.3104 68.5796 55.0759 68.4221 54.9102C68.2664 54.7428 68.0501 54.6591 67.7733 54.6591C67.5811 54.6591 67.4088 54.6997 67.2563 54.7809C67.1055 54.8621 66.9862 54.9806 66.8983 55.1364C66.8122 55.2921 66.7691 55.4811 66.7691 55.7031Z" fill="#455468"/>
<path d="M3.40057 3.18182C3.37074 2.92992 3.24976 2.73438 3.03764 2.59517C2.82552 2.45597 2.56534 2.38636 2.2571 2.38636C2.03172 2.38636 1.83452 2.42282 1.66548 2.49574C1.49811 2.56866 1.36719 2.66892 1.27273 2.79652C1.17992 2.92412 1.13352 3.06913 1.13352 3.23153C1.13352 3.36742 1.16584 3.48426 1.23047 3.58203C1.29676 3.67815 1.38127 3.75852 1.48402 3.82315C1.58677 3.88613 1.69448 3.93833 1.80717 3.97976C1.91986 4.01953 2.02344 4.05185 2.1179 4.0767L2.63494 4.21591C2.76752 4.25071 2.91501 4.29877 3.07741 4.36009C3.24148 4.4214 3.39808 4.50509 3.54723 4.61115C3.69804 4.71555 3.82232 4.84979 3.9201 5.01385C4.01787 5.17791 4.06676 5.37926 4.06676 5.6179C4.06676 5.89299 3.99467 6.14157 3.8505 6.36364C3.70798 6.5857 3.49917 6.76219 3.22408 6.89311C2.95064 7.02403 2.61837 7.08949 2.22727 7.08949C1.86269 7.08949 1.54699 7.03066 1.28018 6.913C1.01503 6.79534 0.806226 6.63127 0.653764 6.42081C0.502959 6.21035 0.417614 5.96591 0.397727 5.6875H1.03409C1.05066 5.87973 1.11529 6.03883 1.22798 6.16477C1.34233 6.28906 1.48651 6.38187 1.66051 6.44318C1.83617 6.50284 2.02509 6.53267 2.22727 6.53267C2.46259 6.53267 2.67389 6.49455 2.86115 6.41832C3.04841 6.34044 3.19673 6.23272 3.30611 6.09517C3.41548 5.95597 3.47017 5.79356 3.47017 5.60795C3.47017 5.43892 3.42294 5.30137 3.32848 5.19531C3.23402 5.08925 3.10973 5.00308 2.95561 4.93679C2.80149 4.8705 2.63494 4.8125 2.45597 4.76278L1.82955 4.58381C1.43182 4.46946 1.11695 4.30623 0.884943 4.09411C0.652936 3.88198 0.536932 3.6044 0.536932 3.26136C0.536932 2.97633 0.613991 2.72775 0.768111 2.51562C0.923887 2.30185 1.13269 2.13613 1.39453 2.01847C1.65803 1.89915 1.95218 1.83949 2.27699 1.83949C2.60511 1.83949 2.89678 1.89832 3.15199 2.01598C3.4072 2.13198 3.60938 2.29107 3.75852 2.49325C3.90933 2.69543 3.98887 2.92495 3.99716 3.18182H3.40057ZM5.0008 8.43182V3.18182H5.56756V3.78835H5.63716C5.68025 3.72206 5.73991 3.63755 5.81614 3.5348C5.89403 3.4304 6.00506 3.33759 6.14924 3.25639C6.29507 3.17353 6.49228 3.1321 6.74086 3.1321C7.06235 3.1321 7.34573 3.21248 7.591 3.37322C7.83626 3.53397 8.02767 3.76184 8.16522 4.05682C8.30276 4.3518 8.37154 4.69981 8.37154 5.10085C8.37154 5.50521 8.30276 5.85571 8.16522 6.15234C8.02767 6.44732 7.83709 6.67602 7.59348 6.83842C7.34988 6.99917 7.06898 7.07955 6.7508 7.07955C6.50553 7.07955 6.30916 7.03894 6.16167 6.95774C6.01417 6.87488 5.90066 6.78125 5.82111 6.67685C5.74157 6.57079 5.68025 6.48295 5.63716 6.41335H5.58745V8.43182H5.0008ZM5.5775 5.09091C5.5775 5.37926 5.61976 5.63364 5.70428 5.85405C5.7888 6.0728 5.91226 6.24432 6.07466 6.36861C6.23707 6.49124 6.43593 6.55256 6.67125 6.55256C6.91652 6.55256 7.12118 6.48793 7.28525 6.35866C7.45096 6.22775 7.57525 6.05208 7.65811 5.83168C7.74263 5.60961 7.78489 5.36269 7.78489 5.09091C7.78489 4.82244 7.74346 4.58049 7.6606 4.36506C7.5794 4.14796 7.45594 3.97644 7.29022 3.8505C7.12615 3.72289 6.91983 3.65909 6.67125 3.65909C6.43262 3.65909 6.2321 3.71958 6.06969 3.84055C5.90729 3.95987 5.78465 4.12725 5.70179 4.34268C5.61893 4.55646 5.5775 4.80587 5.5775 5.09091ZM10.8673 7.07955C10.4994 7.07955 10.182 6.99834 9.91522 6.83594C9.65007 6.67188 9.4454 6.44318 9.30123 6.14986C9.15871 5.85488 9.08745 5.51184 9.08745 5.12074C9.08745 4.72964 9.15871 4.38494 9.30123 4.08665C9.4454 3.7867 9.64592 3.55303 9.90279 3.38565C10.1613 3.21662 10.4629 3.1321 10.8076 3.1321C11.0065 3.1321 11.2029 3.16525 11.3968 3.23153C11.5906 3.29782 11.7671 3.40554 11.9262 3.55469C12.0853 3.70218 12.2121 3.89773 12.3066 4.14134C12.401 4.38494 12.4482 4.6849 12.4482 5.04119V5.28977H9.50506V4.78267H11.8517C11.8517 4.56723 11.8086 4.375 11.7224 4.20597C11.6379 4.03693 11.5169 3.90353 11.3595 3.80575C11.2037 3.70798 11.0197 3.65909 10.8076 3.65909C10.574 3.65909 10.3718 3.71709 10.2011 3.8331C10.032 3.94744 9.90196 4.09659 9.81081 4.28054C9.71967 4.46449 9.67409 4.66169 9.67409 4.87216V5.21023C9.67409 5.49858 9.72381 5.74302 9.82324 5.94354C9.92433 6.1424 10.0644 6.29403 10.2433 6.39844C10.4223 6.50118 10.6303 6.55256 10.8673 6.55256C11.0214 6.55256 11.1606 6.53101 11.2849 6.48793C11.4108 6.44318 11.5194 6.37689 11.6105 6.28906C11.7017 6.19957 11.7721 6.08854 11.8218 5.95597L12.3886 6.11506C12.3289 6.30729 12.2287 6.47633 12.0878 6.62216C11.9469 6.76634 11.7729 6.87902 11.5658 6.96023C11.3586 7.03977 11.1258 7.07955 10.8673 7.07955ZM14.8918 7.07955C14.5338 7.07955 14.2256 6.99503 13.9671 6.82599C13.7085 6.65696 13.5097 6.42412 13.3705 6.12749C13.2313 5.83085 13.1617 5.49195 13.1617 5.1108C13.1617 4.72301 13.2329 4.3808 13.3754 4.08416C13.5196 3.78587 13.7201 3.55303 13.977 3.38565C14.2355 3.21662 14.5371 3.1321 14.8818 3.1321C15.1503 3.1321 15.3923 3.18182 15.6077 3.28125C15.8231 3.38068 15.9996 3.51989 16.1372 3.69886C16.2747 3.87784 16.3601 4.08665 16.3932 4.32528H15.8066C15.7618 4.15128 15.6624 3.99716 15.5083 3.86293C15.3558 3.72704 15.1503 3.65909 14.8918 3.65909C14.6631 3.65909 14.4626 3.71875 14.2902 3.83807C14.1195 3.95573 13.9861 4.12228 13.89 4.33771C13.7955 4.55149 13.7483 4.80256 13.7483 5.09091C13.7483 5.38589 13.7947 5.64276 13.8875 5.86151C13.982 6.08026 14.1146 6.25012 14.2852 6.37109C14.4576 6.49207 14.6598 6.55256 14.8918 6.55256C15.0442 6.55256 15.1826 6.52604 15.3069 6.47301C15.4312 6.41998 15.5364 6.34375 15.6226 6.24432C15.7088 6.14489 15.7701 6.02557 15.8066 5.88636H16.3932C16.3601 6.11174 16.278 6.31475 16.1471 6.49538C16.0178 6.67436 15.8463 6.81688 15.6325 6.92294C15.4204 7.02734 15.1735 7.07955 14.8918 7.07955ZM17.2508 7V3.18182H17.8374V7H17.2508ZM17.5491 2.54545C17.4347 2.54545 17.3361 2.50651 17.2533 2.42862C17.1721 2.35073 17.1315 2.2571 17.1315 2.14773C17.1315 2.03835 17.1721 1.94472 17.2533 1.86683C17.3361 1.78894 17.4347 1.75 17.5491 1.75C17.6634 1.75 17.7612 1.78894 17.8424 1.86683C17.9253 1.94472 17.9667 2.03835 17.9667 2.14773C17.9667 2.2571 17.9253 2.35073 17.8424 2.42862C17.7612 2.50651 17.6634 2.54545 17.5491 2.54545ZM20.6122 3.18182V3.67898H18.554V3.18182H20.6122ZM19.1705 7V2.65483C19.1705 2.43608 19.2218 2.25379 19.3246 2.10795C19.4273 1.96212 19.5607 1.85275 19.7248 1.77983C19.8888 1.70691 20.062 1.67045 20.2443 1.67045C20.3885 1.67045 20.5062 1.68205 20.5973 1.70526C20.6884 1.72846 20.7564 1.75 20.8011 1.76989L20.6321 2.27699C20.6023 2.26705 20.5608 2.25462 20.5078 2.2397C20.4564 2.22479 20.3885 2.21733 20.304 2.21733C20.1101 2.21733 19.9701 2.26622 19.8839 2.36399C19.7994 2.46177 19.7571 2.60511 19.7571 2.79403V7H19.1705ZM21.4344 7V3.18182H22.021V7H21.4344ZM21.7327 2.54545C21.6183 2.54545 21.5197 2.50651 21.4369 2.42862C21.3557 2.35073 21.3151 2.2571 21.3151 2.14773C21.3151 2.03835 21.3557 1.94472 21.4369 1.86683C21.5197 1.78894 21.6183 1.75 21.7327 1.75C21.847 1.75 21.9448 1.78894 22.026 1.86683C22.1089 1.94472 22.1503 2.03835 22.1503 2.14773C22.1503 2.2571 22.1089 2.35073 22.026 2.42862C21.9448 2.50651 21.847 2.54545 21.7327 2.54545ZM24.6467 7.07955C24.2887 7.07955 23.9805 6.99503 23.7219 6.82599C23.4634 6.65696 23.2646 6.42412 23.1254 6.12749C22.9862 5.83085 22.9165 5.49195 22.9165 5.1108C22.9165 4.72301 22.9878 4.3808 23.1303 4.08416C23.2745 3.78587 23.475 3.55303 23.7319 3.38565C23.9904 3.21662 24.292 3.1321 24.6367 3.1321C24.9052 3.1321 25.1471 3.18182 25.3626 3.28125C25.578 3.38068 25.7545 3.51989 25.892 3.69886C26.0296 3.87784 26.1149 4.08665 26.1481 4.32528H25.5614C25.5167 4.15128 25.4173 3.99716 25.2631 3.86293C25.1107 3.72704 24.9052 3.65909 24.6467 3.65909C24.418 3.65909 24.2174 3.71875 24.0451 3.83807C23.8744 3.95573 23.741 4.12228 23.6449 4.33771C23.5504 4.55149 23.5032 4.80256 23.5032 5.09091C23.5032 5.38589 23.5496 5.64276 23.6424 5.86151C23.7369 6.08026 23.8694 6.25012 24.0401 6.37109C24.2125 6.49207 24.4147 6.55256 24.6467 6.55256C24.7991 6.55256 24.9375 6.52604 25.0618 6.47301C25.1861 6.41998 25.2913 6.34375 25.3775 6.24432C25.4637 6.14489 25.525 6.02557 25.5614 5.88636H26.1481C26.1149 6.11174 26.0329 6.31475 25.902 6.49538C25.7727 6.67436 25.6012 6.81688 25.3874 6.92294C25.1753 7.02734 24.9284 7.07955 24.6467 7.07955ZM29.5611 4.70312V7H28.9744V3.18182H29.5412V3.77841H29.5909C29.6804 3.58452 29.8163 3.42874 29.9986 3.31108C30.1809 3.19176 30.4162 3.1321 30.7045 3.1321C30.9631 3.1321 31.1893 3.18513 31.3832 3.29119C31.5771 3.3956 31.7279 3.55469 31.8356 3.76847C31.9433 3.98059 31.9972 4.24905 31.9972 4.57386V7H31.4105V4.61364C31.4105 4.31368 31.3326 4.08002 31.1768 3.91264C31.0211 3.74361 30.8073 3.65909 30.5355 3.65909C30.3482 3.65909 30.1809 3.69969 30.0334 3.78089C29.8875 3.8621 29.7724 3.98059 29.6879 4.13636C29.6033 4.29214 29.5611 4.48106 29.5611 4.70312ZM35.4754 5.43892V3.18182H36.0621V7H35.4754V6.35369H35.4356C35.3461 6.54759 35.2069 6.71248 35.018 6.84837C34.8291 6.9826 34.5905 7.04972 34.3021 7.04972C34.0635 7.04972 33.8514 6.99751 33.6657 6.89311C33.4801 6.78705 33.3343 6.62796 33.2282 6.41584C33.1222 6.20206 33.0692 5.93277 33.0692 5.60795V3.18182H33.6558V5.56818C33.6558 5.84659 33.7337 6.06866 33.8895 6.23438C34.0469 6.40009 34.2474 6.48295 34.491 6.48295C34.6369 6.48295 34.7852 6.44567 34.936 6.37109C35.0885 6.29652 35.2161 6.18217 35.3188 6.02805C35.4232 5.87393 35.4754 5.67756 35.4754 5.43892ZM37.1365 7V3.18182H37.7033V3.77841H37.753C37.8326 3.57457 37.961 3.41631 38.1383 3.30362C38.3156 3.18928 38.5286 3.1321 38.7772 3.1321C39.0291 3.1321 39.2387 3.18928 39.4061 3.30362C39.5751 3.41631 39.7069 3.57457 39.8013 3.77841H39.8411C39.9389 3.5812 40.0855 3.4246 40.2811 3.30859C40.4766 3.19093 40.7111 3.1321 40.9846 3.1321C41.3259 3.1321 41.6052 3.23899 41.8223 3.45277C42.0394 3.66489 42.1479 3.9955 42.1479 4.4446V7H41.5613V4.4446C41.5613 4.16288 41.4842 3.96153 41.3301 3.84055C41.176 3.71958 40.9945 3.65909 40.7857 3.65909C40.5172 3.65909 40.3092 3.74029 40.1618 3.9027C40.0143 4.06345 39.9405 4.26728 39.9405 4.5142V7H39.3439V4.38494C39.3439 4.16785 39.2735 3.99302 39.1326 3.86044C38.9918 3.72621 38.8103 3.65909 38.5882 3.65909C38.4358 3.65909 38.2933 3.69969 38.1607 3.78089C38.0298 3.8621 37.9237 3.97479 37.8425 4.11896C37.763 4.26148 37.7232 4.42637 37.7232 4.61364V7H37.1365ZM44.8214 7.07955C44.4535 7.07955 44.1361 6.99834 43.8693 6.83594C43.6042 6.67188 43.3995 6.44318 43.2553 6.14986C43.1128 5.85488 43.0415 5.51184 43.0415 5.12074C43.0415 4.72964 43.1128 4.38494 43.2553 4.08665C43.3995 3.7867 43.6 3.55303 43.8569 3.38565C44.1154 3.21662 44.417 3.1321 44.7617 3.1321C44.9606 3.1321 45.157 3.16525 45.3509 3.23153C45.5447 3.29782 45.7212 3.40554 45.8803 3.55469C46.0394 3.70218 46.1662 3.89773 46.2607 4.14134C46.3551 4.38494 46.4023 4.6849 46.4023 5.04119V5.28977H43.4592V4.78267H45.8058C45.8058 4.56723 45.7627 4.375 45.6765 4.20597C45.592 4.03693 45.471 3.90353 45.3136 3.80575C45.1578 3.70798 44.9738 3.65909 44.7617 3.65909C44.5281 3.65909 44.3259 3.71709 44.1552 3.8331C43.9862 3.94744 43.8561 4.09659 43.7649 4.28054C43.6738 4.46449 43.6282 4.66169 43.6282 4.87216V5.21023C43.6282 5.49858 43.6779 5.74302 43.7773 5.94354C43.8784 6.1424 44.0185 6.29403 44.1974 6.39844C44.3764 6.50118 44.5844 6.55256 44.8214 6.55256C44.9755 6.55256 45.1147 6.53101 45.239 6.48793C45.3649 6.44318 45.4735 6.37689 45.5646 6.28906C45.6558 6.19957 45.7262 6.08854 45.7759 5.95597L46.3427 6.11506C46.283 6.30729 46.1828 6.47633 46.0419 6.62216C45.901 6.76634 45.727 6.87902 45.5199 6.96023C45.3127 7.03977 45.0799 7.07955 44.8214 7.07955ZM47.2947 7V3.18182H47.8615V3.75852H47.9013C47.9709 3.5696 48.0968 3.41631 48.2791 3.29865C48.4614 3.18099 48.6669 3.12216 48.8956 3.12216C48.9387 3.12216 48.9925 3.12299 49.0572 3.12464C49.1218 3.1263 49.1707 3.12879 49.2038 3.1321V3.72869C49.1839 3.72372 49.1384 3.71626 49.0671 3.70632C48.9975 3.69472 48.9238 3.68892 48.8459 3.68892C48.6603 3.68892 48.4946 3.72786 48.3487 3.80575C48.2045 3.88198 48.0902 3.98804 48.0057 4.12393C47.9228 4.25817 47.8814 4.41146 47.8814 4.58381V7H47.2947ZM49.8992 7V3.18182H50.4859V7H49.8992ZM50.1975 2.54545C50.0832 2.54545 49.9846 2.50651 49.9017 2.42862C49.8205 2.35073 49.7799 2.2571 49.7799 2.14773C49.7799 2.03835 49.8205 1.94472 49.9017 1.86683C49.9846 1.78894 50.0832 1.75 50.1975 1.75C50.3119 1.75 50.4097 1.78894 50.4909 1.86683C50.5737 1.94472 50.6151 2.03835 50.6151 2.14773C50.6151 2.2571 50.5737 2.35073 50.4909 2.42862C50.4097 2.50651 50.3119 2.54545 50.1975 2.54545ZM53.1115 7.07955C52.7536 7.07955 52.4453 6.99503 52.1868 6.82599C51.9283 6.65696 51.7294 6.42412 51.5902 6.12749C51.451 5.83085 51.3814 5.49195 51.3814 5.1108C51.3814 4.72301 51.4527 4.3808 51.5952 4.08416C51.7393 3.78587 51.9399 3.55303 52.1967 3.38565C52.4553 3.21662 52.7569 3.1321 53.1016 3.1321C53.37 3.1321 53.612 3.18182 53.8274 3.28125C54.0429 3.38068 54.2193 3.51989 54.3569 3.69886C54.4944 3.87784 54.5798 4.08665 54.6129 4.32528H54.0263C53.9815 4.15128 53.8821 3.99716 53.728 3.86293C53.5755 3.72704 53.37 3.65909 53.1115 3.65909C52.8828 3.65909 52.6823 3.71875 52.5099 3.83807C52.3393 3.95573 52.2058 4.12228 52.1097 4.33771C52.0153 4.55149 51.968 4.80256 51.968 5.09091C51.968 5.38589 52.0144 5.64276 52.1072 5.86151C52.2017 6.08026 52.3343 6.25012 52.505 6.37109C52.6773 6.49207 52.8795 6.55256 53.1115 6.55256C53.264 6.55256 53.4023 6.52604 53.5266 6.47301C53.6509 6.41998 53.7562 6.34375 53.8423 6.24432C53.9285 6.14489 53.9898 6.02557 54.0263 5.88636H54.6129C54.5798 6.11174 54.4978 6.31475 54.3668 6.49538C54.2376 6.67436 54.0661 6.81688 53.8523 6.92294C53.6402 7.02734 53.3932 7.07955 53.1115 7.07955ZM0.536932 15V11.1818H1.10369V11.7585H1.14347C1.21307 11.5696 1.33902 11.4163 1.52131 11.2987C1.7036 11.181 1.90909 11.1222 2.13778 11.1222C2.18087 11.1222 2.23473 11.123 2.29936 11.1246C2.36399 11.1263 2.41288 11.1288 2.44602 11.1321V11.7287C2.42614 11.7237 2.38056 11.7163 2.3093 11.7063C2.2397 11.6947 2.16596 11.6889 2.08807 11.6889C1.90246 11.6889 1.73674 11.7279 1.59091 11.8058C1.44673 11.882 1.33239 11.988 1.24787 12.1239C1.16501 12.2582 1.12358 12.4115 1.12358 12.5838V15H0.536932ZM4.265 15.0895C4.02305 15.0895 3.80347 15.0439 3.60627 14.9528C3.40906 14.86 3.25246 14.7266 3.13645 14.5526C3.02045 14.3769 2.96245 14.1648 2.96245 13.9162C2.96245 13.6974 3.00553 13.5201 3.09171 13.3842C3.17788 13.2467 3.29306 13.139 3.43723 13.0611C3.58141 12.9832 3.7405 12.9252 3.91451 12.8871C4.09017 12.8473 4.26666 12.8158 4.44398 12.7926C4.67599 12.7628 4.86408 12.7404 5.00826 12.7255C5.15409 12.7089 5.26015 12.6816 5.32644 12.6435C5.39438 12.6054 5.42836 12.5391 5.42836 12.4446V12.4247C5.42836 12.1795 5.36124 11.9889 5.22701 11.853C5.09443 11.7171 4.89308 11.6491 4.62296 11.6491C4.34289 11.6491 4.12331 11.7105 3.96422 11.8331C3.80513 11.9557 3.69327 12.0866 3.62864 12.2259L3.07182 12.027C3.17125 11.795 3.30383 11.6143 3.46955 11.4851C3.63693 11.3542 3.81922 11.263 4.01642 11.2116C4.21529 11.1586 4.41084 11.1321 4.60307 11.1321C4.7257 11.1321 4.86657 11.147 5.02566 11.1768C5.18641 11.205 5.34135 11.2638 5.4905 11.3533C5.64131 11.4428 5.76642 11.5779 5.86586 11.7585C5.96529 11.9392 6.015 12.1811 6.015 12.4844V15H5.42836V14.483H5.39853C5.35875 14.5658 5.29247 14.6545 5.19966 14.7489C5.10686 14.8434 4.9834 14.9238 4.82928 14.9901C4.67516 15.0563 4.48707 15.0895 4.265 15.0895ZM4.35449 14.5625C4.5865 14.5625 4.78205 14.5169 4.94114 14.4258C5.10189 14.3346 5.22286 14.217 5.30407 14.0728C5.38693 13.9286 5.42836 13.777 5.42836 13.6179V13.081C5.4035 13.1108 5.34881 13.1381 5.26429 13.163C5.18143 13.1862 5.08532 13.2069 4.97594 13.2251C4.86822 13.2417 4.76299 13.2566 4.66025 13.2699C4.55916 13.2815 4.47712 13.2914 4.41415 13.2997C4.26169 13.3196 4.11917 13.3519 3.98659 13.3967C3.85568 13.4397 3.74962 13.5052 3.66841 13.593C3.58887 13.6792 3.54909 13.7969 3.54909 13.946C3.54909 14.1499 3.6245 14.304 3.7753 14.4084C3.92776 14.5111 4.12083 14.5625 4.35449 14.5625ZM8.74627 11.1818V11.679H6.76758V11.1818H8.74627ZM7.34428 10.267H7.93093V13.9062C7.93093 14.072 7.95496 14.1963 8.00302 14.2791C8.05273 14.3603 8.11571 14.415 8.19194 14.4432C8.26983 14.4697 8.35186 14.483 8.43803 14.483C8.50266 14.483 8.55569 14.4796 8.59712 14.473C8.63855 14.4647 8.6717 14.4581 8.69656 14.4531L8.81587 14.9801C8.7761 14.995 8.72058 15.0099 8.64933 15.0249C8.57807 15.0414 8.48775 15.0497 8.37837 15.0497C8.21265 15.0497 8.05025 15.0141 7.89116 14.9428C7.73372 14.8716 7.60281 14.763 7.4984 14.6172C7.39566 14.4714 7.34428 14.2874 7.34428 14.0653V10.267ZM9.62873 15V11.1818H10.2154V15H9.62873ZM9.92702 10.5455C9.81268 10.5455 9.71407 10.5065 9.63121 10.4286C9.55001 10.3507 9.50941 10.2571 9.50941 10.1477C9.50941 10.0384 9.55001 9.94472 9.63121 9.86683C9.71407 9.78894 9.81268 9.75 9.92702 9.75C10.0414 9.75 10.1391 9.78894 10.2203 9.86683C10.3032 9.94472 10.3446 10.0384 10.3446 10.1477C10.3446 10.2571 10.3032 10.3507 10.2203 10.4286C10.1391 10.5065 10.0414 10.5455 9.92702 10.5455ZM11.8765 12.7031V15H11.2899V11.1818H11.8566V11.7784H11.9063C11.9958 11.5845 12.1317 11.4287 12.314 11.3111C12.4963 11.1918 12.7316 11.1321 13.02 11.1321C13.2785 11.1321 13.5047 11.1851 13.6986 11.2912C13.8925 11.3956 14.0433 11.5547 14.151 11.7685C14.2587 11.9806 14.3126 12.2491 14.3126 12.5739V15H13.7259V12.6136C13.7259 12.3137 13.6481 12.08 13.4923 11.9126C13.3365 11.7436 13.1227 11.6591 12.8509 11.6591C12.6637 11.6591 12.4963 11.6997 12.3488 11.7809C12.203 11.8621 12.0878 11.9806 12.0033 12.1364C11.9188 12.2921 11.8765 12.4811 11.8765 12.7031ZM16.9258 16.5114C16.6424 16.5114 16.3988 16.4749 16.195 16.402C15.9911 16.3307 15.8213 16.2363 15.6854 16.1186C15.5511 16.0026 15.4442 15.8783 15.3647 15.7457L15.832 15.4176C15.8851 15.4872 15.9522 15.5668 16.0334 15.6562C16.1146 15.7474 16.2256 15.8261 16.3665 15.8924C16.509 15.9603 16.6954 15.9943 16.9258 15.9943C17.234 15.9943 17.4884 15.9197 17.6889 15.7706C17.8894 15.6214 17.9897 15.3878 17.9897 15.0696V14.294H17.94C17.8969 14.3636 17.8356 14.4498 17.756 14.5526C17.6781 14.6536 17.5655 14.744 17.418 14.8235C17.2721 14.9014 17.0749 14.9403 16.8263 14.9403C16.5181 14.9403 16.2414 14.8674 15.9961 14.7216C15.7525 14.5758 15.5594 14.3636 15.4169 14.0852C15.276 13.8068 15.2056 13.4687 15.2056 13.071C15.2056 12.6799 15.2744 12.3394 15.4119 12.0494C15.5495 11.7577 15.7409 11.5323 15.9862 11.3732C16.2314 11.2125 16.5148 11.1321 16.8363 11.1321C17.0849 11.1321 17.2821 11.1735 17.4279 11.2564C17.5754 11.3376 17.6881 11.4304 17.766 11.5348C17.8455 11.6375 17.9068 11.7221 17.9499 11.7884H18.0096V11.1818H18.5763V15.1094C18.5763 15.4375 18.5018 15.7043 18.3526 15.9098C18.2051 16.117 18.0063 16.2686 17.756 16.3647C17.5075 16.4625 17.2307 16.5114 16.9258 16.5114ZM16.9059 14.4134C17.1412 14.4134 17.3401 14.3595 17.5025 14.2518C17.6649 14.1441 17.7884 13.9891 17.8729 13.7869C17.9574 13.5848 17.9996 13.3428 17.9996 13.0611C17.9996 12.786 17.9582 12.5432 17.8754 12.3327C17.7925 12.1223 17.6699 11.9574 17.5075 11.8381C17.3451 11.7187 17.1445 11.6591 16.9059 11.6591C16.6573 11.6591 16.4502 11.7221 16.2844 11.848C16.1204 11.974 15.9969 12.143 15.9141 12.3551C15.8329 12.5672 15.7923 12.8026 15.7923 13.0611C15.7923 13.3262 15.8337 13.5607 15.9165 13.7646C16.0011 13.9667 16.1254 14.1258 16.2894 14.2418C16.4551 14.3562 16.6606 14.4134 16.9059 14.4134ZM23.3192 11.1818V11.679H21.261V11.1818H23.3192ZM21.8775 15V10.6548C21.8775 10.4361 21.9289 10.2538 22.0316 10.108C22.1344 9.96212 22.2678 9.85275 22.4318 9.77983C22.5959 9.70691 22.7691 9.67045 22.9513 9.67045C23.0955 9.67045 23.2132 9.68205 23.3043 9.70526C23.3955 9.72846 23.4634 9.75 23.5082 9.76989L23.3391 10.277C23.3093 10.267 23.2679 10.2546 23.2148 10.2397C23.1635 10.2248 23.0955 10.2173 23.011 10.2173C22.8171 10.2173 22.6771 10.2662 22.5909 10.364C22.5064 10.4618 22.4641 10.6051 22.4641 10.794V15H21.8775ZM25.5353 15.0795C25.1906 15.0795 24.8882 14.9975 24.628 14.8335C24.3695 14.6694 24.1673 14.4399 24.0215 14.1449C23.8773 13.8499 23.8052 13.5052 23.8052 13.1108C23.8052 12.7131 23.8773 12.3659 24.0215 12.0692C24.1673 11.7726 24.3695 11.5423 24.628 11.3782C24.8882 11.2141 25.1906 11.1321 25.5353 11.1321C25.88 11.1321 26.1816 11.2141 26.4402 11.3782C26.7003 11.5423 26.9025 11.7726 27.0467 12.0692C27.1925 12.3659 27.2654 12.7131 27.2654 13.1108C27.2654 13.5052 27.1925 13.8499 27.0467 14.1449C26.9025 14.4399 26.7003 14.6694 26.4402 14.8335C26.1816 14.9975 25.88 15.0795 25.5353 15.0795ZM25.5353 14.5526C25.7972 14.5526 26.0126 14.4854 26.1816 14.3512C26.3507 14.217 26.4758 14.0405 26.557 13.8217C26.6382 13.603 26.6788 13.366 26.6788 13.1108C26.6788 12.8556 26.6382 12.6178 26.557 12.3974C26.4758 12.177 26.3507 11.9988 26.1816 11.8629C26.0126 11.727 25.7972 11.6591 25.5353 11.6591C25.2735 11.6591 25.0581 11.727 24.889 11.8629C24.72 11.9988 24.5949 12.177 24.5137 12.3974C24.4325 12.6178 24.3919 12.8556 24.3919 13.1108C24.3919 13.366 24.4325 13.603 24.5137 13.8217C24.5949 14.0405 24.72 14.217 24.889 14.3512C25.0581 14.4854 25.2735 14.5526 25.5353 14.5526ZM28.161 15V11.1818H28.7277V11.7585H28.7675C28.8371 11.5696 28.963 11.4163 29.1453 11.2987C29.3276 11.181 29.5331 11.1222 29.7618 11.1222C29.8049 11.1222 29.8588 11.123 29.9234 11.1246C29.988 11.1263 30.0369 11.1288 30.07 11.1321V11.7287C30.0502 11.7237 30.0046 11.7163 29.9333 11.7063C29.8637 11.6947 29.79 11.6889 29.7121 11.6889C29.5265 11.6889 29.3608 11.7279 29.2149 11.8058C29.0708 11.882 28.9564 11.988 28.8719 12.1239C28.789 12.2582 28.7476 12.4115 28.7476 12.5838V15H28.161ZM34.3947 11.1818V11.679H32.416V11.1818H34.3947ZM32.9927 10.267H33.5794V13.9062C33.5794 14.072 33.6034 14.1963 33.6515 14.2791C33.7012 14.3603 33.7641 14.415 33.8404 14.4432C33.9183 14.4697 34.0003 14.483 34.0865 14.483C34.1511 14.483 34.2041 14.4796 34.2456 14.473C34.287 14.4647 34.3201 14.4581 34.345 14.4531L34.4643 14.9801C34.4245 14.995 34.369 15.0099 34.2978 15.0249C34.2265 15.0414 34.1362 15.0497 34.0268 15.0497C33.8611 15.0497 33.6987 15.0141 33.5396 14.9428C33.3822 14.8716 33.2512 14.763 33.1468 14.6172C33.0441 14.4714 32.9927 14.2874 32.9927 14.0653V10.267ZM35.9458 12.7031V15H35.3592V9.90909H35.9458V11.7784H35.9956C36.085 11.5812 36.2193 11.4246 36.3983 11.3086C36.5789 11.1909 36.8192 11.1321 37.1191 11.1321C37.3793 11.1321 37.6072 11.1843 37.8027 11.2887C37.9983 11.3915 38.1499 11.5497 38.2576 11.7635C38.367 11.9756 38.4217 12.2457 38.4217 12.5739V15H37.835V12.6136C37.835 12.3104 37.7563 12.0759 37.5989 11.9102C37.4431 11.7428 37.2269 11.6591 36.9501 11.6591C36.7579 11.6591 36.5855 11.6997 36.4331 11.7809C36.2823 11.8621 36.1629 11.9806 36.0751 12.1364C35.9889 12.2921 35.9458 12.4811 35.9458 12.7031ZM39.4949 15V11.1818H40.0816V15H39.4949ZM39.7932 10.5455C39.6789 10.5455 39.5803 10.5065 39.4974 10.4286C39.4162 10.3507 39.3756 10.2571 39.3756 10.1477C39.3756 10.0384 39.4162 9.94472 39.4974 9.86683C39.5803 9.78894 39.6789 9.75 39.7932 9.75C39.9076 9.75 40.0054 9.78894 40.0866 9.86683C40.1694 9.94472 40.2108 10.0384 40.2108 10.1477C40.2108 10.2571 40.1694 10.3507 40.0866 10.4286C40.0054 10.5065 39.9076 10.5455 39.7932 10.5455ZM43.8606 12.0369L43.3336 12.1861C43.3005 12.0982 43.2516 12.0129 43.187 11.93C43.124 11.8455 43.0378 11.7759 42.9284 11.7212C42.8191 11.6665 42.679 11.6392 42.5083 11.6392C42.2747 11.6392 42.08 11.6931 41.9242 11.8008C41.7701 11.9068 41.693 12.0419 41.693 12.206C41.693 12.3518 41.746 12.467 41.8521 12.5515C41.9582 12.636 42.1239 12.7064 42.3493 12.7628L42.916 12.902C43.2574 12.9848 43.5118 13.1116 43.6792 13.2823C43.8465 13.4513 43.9302 13.6693 43.9302 13.9361C43.9302 14.1548 43.8672 14.3504 43.7413 14.5227C43.617 14.6951 43.443 14.831 43.2193 14.9304C42.9956 15.0298 42.7354 15.0795 42.4387 15.0795C42.0493 15.0795 41.727 14.995 41.4718 14.826C41.2166 14.657 41.055 14.41 40.987 14.0852L41.5439 13.946C41.5969 14.1515 41.6971 14.3056 41.8446 14.4084C41.9938 14.5111 42.1885 14.5625 42.4288 14.5625C42.7022 14.5625 42.9193 14.5045 43.0801 14.3885C43.2425 14.2708 43.3237 14.13 43.3237 13.9659C43.3237 13.8333 43.2773 13.7223 43.1845 13.6328C43.0917 13.5417 42.9492 13.4737 42.7569 13.429L42.1206 13.2798C41.7709 13.197 41.514 13.0685 41.35 12.8945C41.1876 12.7189 41.1064 12.4993 41.1064 12.2358C41.1064 12.0204 41.1668 11.8298 41.2878 11.6641C41.4105 11.4983 41.577 11.3683 41.7875 11.2738C41.9996 11.1793 42.2399 11.1321 42.5083 11.1321C42.8862 11.1321 43.1828 11.215 43.3983 11.3807C43.6154 11.5464 43.7695 11.7652 43.8606 12.0369ZM48.2238 15.0795C47.9056 15.0795 47.6247 14.9992 47.3811 14.8384C47.1375 14.676 46.9469 14.4473 46.8094 14.1523C46.6718 13.8557 46.6031 13.5052 46.6031 13.1009C46.6031 12.6998 46.6718 12.3518 46.8094 12.0568C46.9469 11.7618 47.1383 11.534 47.3836 11.3732C47.6289 11.2125 47.9123 11.1321 48.2338 11.1321C48.4823 11.1321 48.6787 11.1735 48.8229 11.2564C48.9687 11.3376 49.0798 11.4304 49.156 11.5348C49.2339 11.6375 49.2944 11.7221 49.3374 11.7884H49.3872V9.90909H49.9738V15H49.407V14.4134H49.3374C49.2944 14.483 49.233 14.5708 49.1535 14.6768C49.074 14.7812 48.9604 14.8749 48.8129 14.9577C48.6655 15.0389 48.4691 15.0795 48.2238 15.0795ZM48.3034 14.5526C48.5387 14.5526 48.7375 14.4912 48.8999 14.3686C49.0624 14.2443 49.1858 14.0728 49.2703 13.854C49.3548 13.6336 49.3971 13.3793 49.3971 13.0909C49.3971 12.8059 49.3557 12.5565 49.2728 12.3427C49.19 12.1272 49.0673 11.9599 48.9049 11.8406C48.7425 11.7196 48.542 11.6591 48.3034 11.6591C48.0548 11.6591 47.8476 11.7229 47.6819 11.8505C47.5178 11.9764 47.3944 12.148 47.3115 12.3651C47.2303 12.5805 47.1897 12.8224 47.1897 13.0909C47.1897 13.3627 47.2311 13.6096 47.314 13.8317C47.3985 14.0521 47.5228 14.2277 47.6869 14.3587C47.8526 14.4879 48.0581 14.5526 48.3034 14.5526ZM52.6808 15.0795C52.3361 15.0795 52.0337 14.9975 51.7735 14.8335C51.515 14.6694 51.3128 14.4399 51.167 14.1449C51.0228 13.8499 50.9507 13.5052 50.9507 13.1108C50.9507 12.7131 51.0228 12.3659 51.167 12.0692C51.3128 11.7726 51.515 11.5423 51.7735 11.3782C52.0337 11.2141 52.3361 11.1321 52.6808 11.1321C53.0255 11.1321 53.3271 11.2141 53.5857 11.3782C53.8459 11.5423 54.048 11.7726 54.1922 12.0692C54.338 12.3659 54.411 12.7131 54.411 13.1108C54.411 13.5052 54.338 13.8499 54.1922 14.1449C54.048 14.4399 53.8459 14.6694 53.5857 14.8335C53.3271 14.9975 53.0255 15.0795 52.6808 15.0795ZM52.6808 14.5526C52.9427 14.5526 53.1581 14.4854 53.3271 14.3512C53.4962 14.217 53.6213 14.0405 53.7025 13.8217C53.7837 13.603 53.8243 13.366 53.8243 13.1108C53.8243 12.8556 53.7837 12.6178 53.7025 12.3974C53.6213 12.177 53.4962 11.9988 53.3271 11.8629C53.1581 11.727 52.9427 11.6591 52.6808 11.6591C52.419 11.6591 52.2036 11.727 52.0345 11.8629C51.8655 11.9988 51.7404 12.177 51.6592 12.3974C51.578 12.6178 51.5374 12.8556 51.5374 13.1108C51.5374 13.366 51.578 13.603 51.6592 13.8217C51.7404 14.0405 51.8655 14.217 52.0345 14.3512C52.2036 14.4854 52.419 14.5526 52.6808 14.5526ZM55.3065 15V11.1818H55.8732V11.7784H55.9229C56.0025 11.5746 56.1309 11.4163 56.3082 11.3036C56.4856 11.1893 56.6985 11.1321 56.9471 11.1321C57.199 11.1321 57.4086 11.1893 57.576 11.3036C57.745 11.4163 57.8768 11.5746 57.9712 11.7784H58.011C58.1088 11.5812 58.2554 11.4246 58.451 11.3086C58.6465 11.1909 58.881 11.1321 59.1545 11.1321C59.4959 11.1321 59.7751 11.239 59.9922 11.4528C60.2093 11.6649 60.3178 11.9955 60.3178 12.4446V15H59.7312V12.4446C59.7312 12.1629 59.6541 11.9615 59.5 11.8406C59.3459 11.7196 59.1644 11.6591 58.9556 11.6591C58.6871 11.6591 58.4792 11.7403 58.3317 11.9027C58.1842 12.0634 58.1104 12.2673 58.1104 12.5142V15H57.5138V12.3849C57.5138 12.1679 57.4434 11.993 57.3026 11.8604C57.1617 11.7262 56.9802 11.6591 56.7582 11.6591C56.6057 11.6591 56.4632 11.6997 56.3306 11.7809C56.1997 11.8621 56.0936 11.9748 56.0124 12.119C55.9329 12.2615 55.8931 12.4264 55.8931 12.6136V15H55.3065ZM62.514 15.0895C62.2721 15.0895 62.0525 15.0439 61.8553 14.9528C61.6581 14.86 61.5015 14.7266 61.3855 14.5526C61.2695 14.3769 61.2115 14.1648 61.2115 13.9162C61.2115 13.6974 61.2546 13.5201 61.3407 13.3842C61.4269 13.2467 61.5421 13.139 61.6863 13.0611C61.8304 12.9832 61.9895 12.9252 62.1635 12.8871C62.3392 12.8473 62.5157 12.8158 62.693 12.7926C62.925 12.7628 63.1131 12.7404 63.2573 12.7255C63.4031 12.7089 63.5092 12.6816 63.5755 12.6435C63.6434 12.6054 63.6774 12.5391 63.6774 12.4446V12.4247C63.6774 12.1795 63.6103 11.9889 63.476 11.853C63.3435 11.7171 63.1421 11.6491 62.872 11.6491C62.5919 11.6491 62.3723 11.7105 62.2132 11.8331C62.0542 11.9557 61.9423 12.0866 61.8777 12.2259L61.3208 12.027C61.4203 11.795 61.5529 11.6143 61.7186 11.4851C61.8859 11.3542 62.0682 11.263 62.2654 11.2116C62.4643 11.1586 62.6599 11.1321 62.8521 11.1321C62.9747 11.1321 63.1156 11.147 63.2747 11.1768C63.4354 11.205 63.5904 11.2638 63.7395 11.3533C63.8903 11.4428 64.0154 11.5779 64.1149 11.7585C64.2143 11.9392 64.264 12.1811 64.264 12.4844V15H63.6774V14.483H63.6475C63.6078 14.5658 63.5415 14.6545 63.4487 14.7489C63.3559 14.8434 63.2324 14.9238 63.0783 14.9901C62.9242 15.0563 62.7361 15.0895 62.514 15.0895ZM62.6035 14.5625C62.8355 14.5625 63.0311 14.5169 63.1902 14.4258C63.3509 14.3346 63.4719 14.217 63.5531 14.0728C63.6359 13.9286 63.6774 13.777 63.6774 13.6179V13.081C63.6525 13.1108 63.5978 13.1381 63.5133 13.163C63.4305 13.1862 63.3343 13.2069 63.225 13.2251C63.1172 13.2417 63.012 13.2566 62.9093 13.2699C62.8082 13.2815 62.7261 13.2914 62.6632 13.2997C62.5107 13.3196 62.3682 13.3519 62.2356 13.3967C62.1047 13.4397 61.9986 13.5052 61.9174 13.593C61.8379 13.6792 61.7981 13.7969 61.7981 13.946C61.7981 14.1499 61.8735 14.304 62.0243 14.4084C62.1768 14.5111 62.3699 14.5625 62.6035 14.5625ZM65.3348 15V11.1818H65.9214V15H65.3348ZM65.6331 10.5455C65.5187 10.5455 65.4201 10.5065 65.3373 10.4286C65.2561 10.3507 65.2155 10.2571 65.2155 10.1477C65.2155 10.0384 65.2561 9.94472 65.3373 9.86683C65.4201 9.78894 65.5187 9.75 65.6331 9.75C65.7474 9.75 65.8452 9.78894 65.9264 9.86683C66.0093 9.94472 66.0507 10.0384 66.0507 10.1477C66.0507 10.2571 66.0093 10.3507 65.9264 10.4286C65.8452 10.5065 65.7474 10.5455 65.6331 10.5455ZM67.5826 12.7031V15H66.9959V11.1818H67.5627V11.7784H67.6124C67.7019 11.5845 67.8378 11.4287 68.0201 11.3111C68.2024 11.1918 68.4377 11.1321 68.726 11.1321C68.9846 11.1321 69.2108 11.1851 69.4047 11.2912C69.5985 11.3956 69.7493 11.5547 69.8571 11.7685C69.9648 11.9806 70.0186 12.2491 70.0186 12.5739V15H69.432V12.6136C69.432 12.3137 69.3541 12.08 69.1983 11.9126C69.0426 11.7436 68.8288 11.6591 68.557 11.6591C68.3697 11.6591 68.2024 11.6997 68.0549 11.7809C67.909 11.8621 67.7939 11.9806 67.7093 12.1364C67.6248 12.2921 67.5826 12.4811 67.5826 12.7031Z" fill="#455468"/>
</svg>
