<svg width="537" height="371" viewBox="0 0 537 371" fill="none" xmlns="http://www.w3.org/2000/svg">
<path fill-rule="evenodd" clip-rule="evenodd" d="M399 0H138V101.828H135.583C135.583 119.11 138.987 136.222 145.6 152.188C152.213 168.154 161.907 182.661 174.126 194.88C186.346 207.1 200.853 216.793 216.819 223.406C232.785 230.02 249.897 233.424 267.178 233.424C284.459 233.424 301.571 230.02 317.537 223.406C333.503 216.793 348.01 207.1 360.23 194.88C372.45 182.661 382.143 168.154 388.756 152.188C395.347 136.275 398.751 119.223 398.773 102H399V0Z" fill="white"/>
<path fill-rule="evenodd" clip-rule="evenodd" d="M399 0.141113H536.577V101.828H399V0.141113ZM536.35 101.828C536.35 173.217 508.096 241.682 457.803 292.161C407.511 342.641 339.299 371 268.175 371C197.05 371 128.839 342.641 78.5466 292.161C28.2944 241.722 0.0453318 173.327 5.45116e-05 102H0V101.828V46H138V102H137.711C137.756 136.668 151.497 169.906 175.923 194.423C200.39 218.981 233.574 232.777 268.175 232.777C302.776 232.777 335.96 218.981 360.427 194.423C384.893 169.865 398.639 136.558 398.639 101.828L536.35 101.828Z" fill="#D8B2FA"/>
<path d="M239.832 311.411C237.506 313.139 238.751 316.833 241.648 316.802L255.449 316.655C257.609 316.632 259.537 318.002 260.226 320.048L264.631 333.129C265.556 335.875 269.454 335.833 270.32 333.068L274.445 319.897C275.09 317.836 276.989 316.425 279.148 316.402L292.95 316.255C295.847 316.224 297.012 312.504 294.65 310.826L283.398 302.833C281.637 301.582 280.882 299.34 281.528 297.279L285.652 284.108C286.518 281.343 283.34 279.085 281.015 280.813L269.936 289.045C268.202 290.333 265.837 290.358 264.076 289.107L252.824 281.114C250.462 279.436 247.333 281.761 248.257 284.507L252.662 297.587C253.352 299.634 252.645 301.891 250.911 303.179L239.832 311.411Z" stroke="white" stroke-width="1.99386"/>
<path d="M406.988 248.675C406.473 251.526 409.906 253.371 411.999 251.368L421.97 241.824C423.53 240.33 425.874 240.012 427.777 241.034L439.935 247.568C442.487 248.939 445.303 246.243 444.044 243.634L438.049 231.202C437.111 229.257 437.532 226.929 439.092 225.436L449.063 215.892C451.156 213.888 449.462 210.377 446.591 210.768L432.915 212.628C430.775 212.919 428.691 211.799 427.753 209.854L421.758 197.422C420.499 194.812 416.637 195.338 416.121 198.189L413.664 211.771C413.28 213.896 411.571 215.531 409.431 215.823L395.754 217.683C392.884 218.074 392.19 221.909 394.742 223.281L406.9 229.815C408.802 230.837 409.83 232.968 409.445 235.093L406.988 248.675Z" stroke="white" stroke-width="1.99386"/>
<path d="M94.7359 244.135C93.5395 246.774 96.4186 249.402 98.9375 247.97L110.937 241.151C112.815 240.084 115.166 240.347 116.761 241.803L126.955 251.108C129.095 253.061 132.484 251.135 131.901 248.297L129.123 234.777C128.688 232.662 129.665 230.507 131.543 229.44L143.543 222.621C146.062 221.189 145.277 217.371 142.398 217.048L128.681 215.512C126.535 215.272 124.788 213.677 124.353 211.562L121.576 198.042C120.993 195.204 117.119 194.77 115.922 197.408L110.223 209.979C109.331 211.946 107.274 213.115 105.128 212.874L91.4115 211.338C88.5322 211.016 86.9224 214.566 89.0623 216.519L99.2563 225.824C100.851 227.28 101.327 229.598 100.436 231.564L94.7359 244.135Z" stroke="white" stroke-width="1.99386"/>
<path d="M0 0H138V50H0V0Z" fill="#D8B2FA"/>
<path d="M39.8824 83.1546C37.1308 84.0619 37.1478 87.9601 39.9071 88.8434L53.0524 93.0513C55.1091 93.7097 56.5079 95.6175 56.5173 97.777L56.5775 111.579C56.5901 114.476 60.3028 115.665 61.9955 113.314L70.0596 102.112C71.3213 100.359 73.568 99.6185 75.6246 100.277L88.7699 104.485C91.5292 105.368 93.8068 102.204 92.0936 99.8679L83.9322 88.7371C82.6553 86.9955 82.645 84.6299 83.9067 82.8773L91.9708 71.6757C93.6635 69.3244 91.3584 66.1807 88.6069 67.088L75.4988 71.4103C73.448 72.0866 71.1949 71.3653 69.918 69.6238L61.7566 58.493C60.0434 56.1565 56.3413 57.3772 56.3539 60.2745L56.4141 74.0767C56.4235 76.2361 55.0413 78.1561 52.9904 78.8323L39.8824 83.1546Z" stroke="white" stroke-width="1.99386"/>
<path d="M444.353 100.158C442.668 102.515 444.983 105.651 447.732 104.735L460.825 100.37C462.874 99.6866 465.129 100.4 466.412 102.138L474.61 113.242C476.331 115.573 480.029 114.34 480.007 111.443L479.901 97.6409C479.885 95.4814 481.261 93.557 483.309 92.874L496.403 88.509C499.152 87.5927 499.122 83.6946 496.36 82.8203L483.201 78.6553C481.142 78.0037 479.737 76.1004 479.721 73.941L479.616 60.1391C479.593 57.2419 475.877 56.0656 474.192 58.4224L466.164 69.6503C464.908 71.407 462.664 72.1551 460.605 71.5035L447.446 67.3385C444.684 66.4642 442.417 69.6354 444.138 71.9662L452.335 83.0704C453.618 84.8077 453.636 87.1733 452.38 88.93L444.353 100.158Z" stroke="white" stroke-width="1.99386"/>
<path d="M198 68.0315L212.404 54.8844L259.559 58.8361L271.227 39.1987L339.106 20.9492L332.801 31.3205L312.857 65.4879L302.271 84.772L316.451 170.195L277.958 145.642L282.785 133.303L235.927 98.9335L219.338 68.0315H198Z" fill="#891AEE"/>
</svg>
